<?xml version="1.0" encoding="utf-8"?>
<!-- Generator: Adobe Illustrator 26.5.0, SVG Export Plug-In . SVG Version: 6.00 Build 0)  -->
<svg version="1.1" xmlns="http://www.w3.org/2000/svg" xmlns:xlink="http://www.w3.org/1999/xlink" x="0px" y="0px"
	 viewBox="0 0 288 288" style="enable-background:new 0 0 288 288;" xml:space="preserve">
<style type="text/css">
	.st0{fill:#683F1F;}
	.st1{fill:#8D2926;}
	.st2{clip-path:url(#SVGID_00000116915023039374167220000000561398464659380615_);}
	.st3{fill:#F4E1C2;}
	.st4{clip-path:url(#SVGID_00000044171951960365699850000003201169884685697710_);}
	.st5{clip-path:url(#SVGID_00000122718787781635144250000009625693221740290495_);}
	.st6{fill:#C16136;}
	.st7{fill:#010101;}
	.st8{font-family:'MyriadPro-Light';}
	.st9{font-size:2.6961px;}
	.st10{clip-path:url(#SVGID_00000088092816942924451320000002831831765784095911_);}
	.st11{fill:#985230;}
	.st12{fill:#952B27;}
	.st13{fill:#652017;}
	.st14{clip-path:url(#SVGID_00000108270725681787109670000005307264308495828623_);}
	.st15{fill:#8A462A;}
	.st16{fill:#651F17;}
	.st17{fill:#FFFFFF;}
	.st18{font-family:'Montserrat', sans-serif; font-weight: 700;}
	.st19{font-size:86.7426px;}
</style>
<g id="Layer_1">
	<g>
		<g>
			<polygon class="st0" points="76,261.7 8,144 76,26.3 212,26.3 280,144 212,261.7 			"/>
			<path class="st1" d="M209,31.5L274,144l-65,112.5H79L14.1,144L79,31.5H209 M215,21h-6H79h-6l-3,5.2L5,138.8L2,144l3,5.2l65,112.5
				l3,5.2h6h130h6l3-5.2l65-112.5l3-5.2l-3-5.2L218,26.3L215,21L215,21z"/>
		</g>
		<g>
			<g>
				<defs>
					<polygon id="SVGID_1_" points="209,31.5 79,31.5 14.1,144 79,256.5 209,256.5 273.9,144 					"/>
				</defs>
				<clipPath id="SVGID_00000084512890038363539460000015687722523443933323_">
					<use xlink:href="#SVGID_1_"  style="overflow:visible;"/>
				</clipPath>
				<g style="clip-path:url(#SVGID_00000084512890038363539460000015687722523443933323_);">
					<g>
						<polygon class="st3" points="184.3,125.2 142.4,69.3 82.2,50.6 129.8,114.2 						"/>
						<polygon class="st3" points="44.3,103.3 -47,84.9 13.4,171.6 100.3,178.1 						"/>
						<polygon class="st3" points="120.6,112.4 72,47.5 -8.2,22.7 47.9,97.7 						"/>
						<polygon class="st3" points="-18.4,19.5 -113,-9.7 -52.2,77.5 38.7,95.8 						"/>
						<polygon class="st3" points="187.2,190.9 234.8,254.5 279.1,251.9 236.3,194.6 						"/>
						<polygon class="st3" points="113.6,185.4 168.2,258.4 227.3,254.9 178.9,190.3 						"/>
						<polygon class="st3" points="18,178.2 77.6,263.7 160.7,258.8 105.3,184.7 						"/>
						<polygon class="st3" points="286.6,251.4 334.5,248.6 291.8,198.8 244.5,195.2 						"/>
						<polygon class="st3" points="238,136.1 194.5,85.4 152.6,72.4 193.5,127.1 						"/>
						<polygon class="st3" points="53.5,105.2 108.6,178.7 173.9,183.6 126.2,119.9 						"/>
						<polygon class="st3" points="239.6,188.6 286,192.1 244.6,143.8 199.2,134.6 						"/>
						<polygon class="st3" points="182.2,184.3 231.3,187.9 190,132.8 135.4,121.7 						"/>
						<polygon class="st3" points="13.4,171.6 5.3,170.9 9.9,177.6 18,178.2 						"/>
						<polygon class="st3" points="291.8,198.8 300.6,199.4 294.9,192.7 286,192.1 						"/>
						<polygon class="st3" points="160.7,258.8 165.2,264.8 172.7,264.4 168.2,258.4 						"/>
						<polygon class="st3" points="227.3,254.9 231.8,260.9 239.3,260.5 234.8,254.5 						"/>
						<polygon class="st3" points="279.1,251.9 283.6,257.9 291.1,257.4 286.6,251.4 						"/>
					</g>
				</g>
			</g>
			<g>
				<defs>
					<polygon id="SVGID_00000049186216477000419360000008347683485330975617_" points="209,31.5 79,31.5 14.1,144 79,256.5 
						209,256.5 273.9,144 					"/>
				</defs>
				<clipPath id="SVGID_00000046336752814219659380000002652615180797867194_">
					<use xlink:href="#SVGID_00000049186216477000419360000008347683485330975617_"  style="overflow:visible;"/>
				</clipPath>
				<g style="clip-path:url(#SVGID_00000046336752814219659380000002652615180797867194_);">
					<g>
						<defs>
							<polygon id="SVGID_00000008140181393332104110000014624215611792242602_" points="209.9,27.7 77.2,27.7 10.8,142.6 
								77.2,257.5 209.9,257.5 276.2,142.6 							"/>
						</defs>
						<clipPath id="SVGID_00000026845822250799191930000012193184124258081173_">
							<use xlink:href="#SVGID_00000008140181393332104110000014624215611792242602_"  style="overflow:visible;"/>
						</clipPath>
						<g style="clip-path:url(#SVGID_00000026845822250799191930000012193184124258081173_);">
							<rect x="-51.6" y="22.3" class="st6" width="460" height="246.5"/>
							<text transform="matrix(1 0 0 1 126.8013 186.0361)" class="st7 st8 st9">C75429</text>
						</g>
					</g>
					<g>
						<defs>
							<polygon id="SVGID_00000001649943316397567550000003846816923253566398_" points="209.9,27.7 77.2,27.7 10.8,142.6 
								77.2,257.5 209.9,257.5 276.2,142.6 							"/>
						</defs>
						<clipPath id="SVGID_00000031922386346961626470000003695668466412578223_">
							<use xlink:href="#SVGID_00000001649943316397567550000003846816923253566398_"  style="overflow:visible;"/>
						</clipPath>
						<g style="clip-path:url(#SVGID_00000031922386346961626470000003695668466412578223_);">
							<polyline class="st11" points="323.4,277.7 -31.7,277.7 -31.7,4.5 323.4,4.5 							"/>
							<g>
								<polygon class="st12" points="25.8,121 -29,122.6 -29,159.7 25.8,161.2 								"/>
								<polygon class="st12" points="98.7,63.1 98.7,24.5 33.4,33.9 33.4,68.4 								"/>
								<polygon class="st12" points="28.4,34.6 -29,42.9 -29,73.6 28.4,68.9 								"/>
								<polygon class="st12" points="144.8,59.3 145,59.3 220.5,65.9 220.5,27.1 144.8,17.9 104.3,23.7 104.3,62.6 								"/>
								<polygon class="st12" points="223.9,216.4 223.9,255.1 287.4,244.6 287.4,210.2 								"/>
								<polygon class="st12" points="28.3,213.8 28.3,249.8 98.7,260.9 98.7,220 								"/>
								<polygon class="st12" points="-29,208.7 -29,240.7 22.7,248.9 22.7,213.3 								"/>
								<polygon class="st12" points="144.8,224 104.3,220.5 104.3,261.8 144.8,268.2 218.3,256 218.3,216.9 								"/>
								<polygon class="st13" points="286.6,71.6 286.6,35.1 226.2,27.8 226.2,66.4 								"/>
								<polygon class="st12" points="144.8,117.6 104.3,118.7 104.3,163.4 144.8,164.6 218.5,162.3 218.5,119.6 								"/>
								<polygon class="st12" points="31.4,120.8 31.4,161.4 98.7,163.3 98.7,118.9 								"/>
								<polygon class="st12" points="190.4,168.8 190.4,214 260.3,207.2 260.3,166.6 								"/>
								<polygon class="st12" points="144.8,170.2 144.7,170.2 72.3,168.1 72.3,212 144.8,218.4 185.5,214.5 185.5,168.9 								
									"/>
								<polygon class="st12" points="223.6,119.7 223.6,162.1 291.2,160 291.2,121.6 								"/>
								<polygon class="st12" points="265.2,206.7 319.7,201.4 319.7,164.7 265.2,166.4 								"/>
								<polyline class="st12" points="185.3,68.5 144.8,64.9 67.9,71.2 67.9,114.2 144.8,111.9 144.8,111.9 185.5,113.1 
									185.5,69.4 								"/>
								<polyline class="st12" points="265,75.8 265,115.2 265,115.2 319.7,116.8 319.7,80.1 								"/>
								<polygon class="st13" points="190.4,69.4 190.4,113.2 260.5,115.2 260.5,75.8 								"/>
								<polygon class="st12" points="-0.2,76.8 -0.2,116.1 62.3,114.3 62.3,71.7 								"/>
								<polygon class="st12" points="-0.2,166.1 -0.2,205.6 66.7,211.5 66.7,168 								"/>
							</g>
							<g>
								<g>
									<defs>
										<polyline id="SVGID_00000163772015113943134060000014352459008833634471_" points="145.9,277.7 -31.7,277.7 -31.7,4.5 
											145.9,4.5 										"/>
									</defs>
									<clipPath id="SVGID_00000125604473980209674980000014020453896411549610_">
										<use xlink:href="#SVGID_00000163772015113943134060000014352459008833634471_"  style="overflow:visible;"/>
									</clipPath>
									<g style="clip-path:url(#SVGID_00000125604473980209674980000014020453896411549610_);">
										<polygon class="st15" points="223.9,216.4 223.9,255.1 287.4,244.6 287.4,210.2 										"/>
										<polygon class="st15" points="286.6,71.6 286.6,35.1 226.2,27.8 226.2,66.4 										"/>
										<polygon class="st15" points="190.4,168.8 190.4,214 260.3,207.2 260.3,166.6 										"/>
										<polygon class="st15" points="223.6,119.7 223.6,162.1 291.2,160 291.2,121.6 										"/>
										<polygon class="st15" points="265.2,206.7 319.7,201.4 319.7,164.7 265.2,166.4 										"/>
										<polyline class="st15" points="265,75.8 265,115.2 265,115.2 319.7,116.8 319.7,80.1 										"/>
										<polygon class="st15" points="190.4,69.4 190.4,113.2 260.5,115.2 260.5,75.8 										"/>
										<polygon class="st16" points="25.8,121 -29,122.6 -29,159.7 25.8,161.2 										"/>
										<polygon class="st16" points="98.7,63.1 98.7,24.5 33.4,33.9 33.4,68.4 										"/>
										<polygon class="st16" points="28.4,34.6 -29,42.9 -29,73.6 28.4,68.9 										"/>
										<polygon class="st16" points="144.8,59.3 145,59.3 220.5,65.9 220.5,27.1 144.8,17.9 104.3,23.7 104.3,62.6 										"/>
										<polygon class="st16" points="28.3,213.8 28.3,249.8 98.7,260.9 98.7,220 										"/>
										<polygon class="st16" points="-29,208.7 -29,240.7 22.7,248.9 22.7,213.3 										"/>
										<polygon class="st16" points="144.8,224 104.3,220.5 104.3,261.8 144.8,268.2 218.3,256 218.3,216.9 										"/>
										<polygon class="st16" points="144.8,117.6 104.3,118.7 104.3,163.4 144.8,164.6 218.5,162.3 218.5,119.6 										"/>
										<polygon class="st16" points="31.4,120.8 31.4,161.4 98.7,163.3 98.7,118.9 										"/>
										<polygon class="st16" points="144.8,170.2 144.7,170.2 72.3,168.1 72.3,212 144.8,218.4 185.5,214.5 185.5,168.9 
																					"/>
										<polyline class="st16" points="185.3,68.5 144.8,64.9 67.9,71.2 67.9,114.2 144.8,111.9 144.8,111.9 185.5,113.1 
											185.5,69.4 										"/>
										<polygon class="st16" points="-0.2,76.8 -0.2,116.1 62.3,114.3 62.3,71.7 										"/>
										<polygon class="st16" points="-0.2,166.1 -0.2,205.6 66.7,211.5 66.7,168 										"/>
									</g>
								</g>
							</g>
						</g>
					</g>
				</g>
			</g>
		</g>
	</g>
	<g style="transform:scale(0.85) translate(30px,30px);">
		<path class="st12" d="M195.8,211H92.2c-8.1,0-14.8-6.6-14.8-14.8V96c0-8.1,6.6-14.8,14.8-14.8h103.7c8.1,0,14.8,6.6,14.8,14.8
			v100.2C210.6,204.4,204,211,195.8,211z"/>
		<path class="st17" d="M195.8,206.7H92.2c-8.1,0-14.8-6.6-14.8-14.8V91.8C77.4,83.6,84,77,92.2,77h103.7c8.1,0,14.8,6.6,14.8,14.8
			V192C210.6,200.1,204,206.7,195.8,206.7z"/>
		<g style="transform: translate(-8px,-8px)">
			<text class="st12 st18 st19">6</text>
		</g>
	</g>
</g>
<g id="_x35_">
	<g>
		<g>
			<circle class="st12" cx="108.9" cy="186.8" r="5.7"/>
			<circle class="st12" cx="126.5" cy="186.8" r="5.7"/>
			<circle class="st12" cx="144" cy="186.8" r="5.7"/>
			<circle class="st12" cx="161.5" cy="186.8" r="5.7"/>
			<circle class="st12" cx="179.1" cy="186.8" r="5.7"/>
		</g>
	</g>
</g>
<g id="_x34_">
	<g>
		<g>
			<circle class="st12" cx="117.7" cy="186.8" r="5.7"/>
			<circle class="st12" cx="135.2" cy="186.8" r="5.7"/>
			<circle class="st12" cx="152.8" cy="186.8" r="5.7"/>
			<circle class="st12" cx="170.3" cy="186.8" r="5.7"/>
		</g>
	</g>
</g>
<g id="_x33_">
	<g>
		<g>
			<circle class="st12" cx="126.5" cy="186.8" r="5.7"/>
			<circle class="st12" cx="144" cy="186.8" r="5.7"/>
			<circle class="st12" cx="161.5" cy="186.8" r="5.7"/>
		</g>
	</g>
</g>
<g id="_x32_">
	<g>
		<g>
			<circle class="st12" cx="135.2" cy="186.8" r="5.7"/>
			<circle class="st12" cx="152.8" cy="186.8" r="5.7"/>
		</g>
	</g>
</g>
<g id="_x31_">
	<g>
		<g>
			<circle class="st12" cx="144" cy="186.8" r="5.7"/>
		</g>
	</g>
</g>
</svg>
