<?xml version="1.0" encoding="utf-8"?>
<!-- Generator: Adobe Illustrator 26.5.0, SVG Export Plug-In . SVG Version: 6.00 Build 0)  -->
<svg version="1.1" xmlns="http://www.w3.org/2000/svg" xmlns:xlink="http://www.w3.org/1999/xlink" x="0px" y="0px"
	 viewBox="0 0 288 288" style="enable-background:new 0 0 288 288;" xml:space="preserve">
<style type="text/css">
	.st0{fill:#683F1F;}
	.st1{fill:#8D2926;}
	.st2{clip-path:url(#SVGID_00000005228086915019601150000012537514931099248277_);}
	.st3{fill:#F4E1C2;}
	.st4{clip-path:url(#SVGID_00000145749027881342242370000006678698614978537369_);}
	.st5{clip-path:url(#SVGID_00000179621816870561601020000016712289673196311470_);}
	.st6{fill:#C16136;}
	.st7{fill:#010101;}
	.st8{font-family:'MyriadPro-Light';}
	.st9{font-size:2.6961px;}
	.st10{clip-path:url(#SVGID_00000020356327871029901270000006929757463921713550_);}
	.st11{fill:#985230;}
	.st12{fill:#651F17;}
	.st13{clip-path:url(#SVGID_00000183951390980227001670000014232883406688100769_);}
	.st14{fill:#952B27;}
	.st15{fill:#FFFFFF;}
	.st16{font-family:'Montserrat';}
	.st17{font-size:69.3941px;}
	.st18{letter-spacing:-6;}
</style>
<g id="Layer_1">
	<g>
		<g>
			<polygon class="st0" points="76,261.7 8,144 76,26.3 212,26.3 280,144 212,261.7 			"/>
			<path class="st1" d="M209,31.5L274,144l-65,112.5H79L14.1,144L79,31.5H209 M215,21h-6H79h-6l-3,5.2L5,138.8L2,144l3,5.2l65,112.5
				l3,5.2h6h130h6l3-5.2l65-112.5l3-5.2l-3-5.2L218,26.3L215,21L215,21z"/>
		</g>
		<g>
			<g>
				<defs>
					<polygon id="SVGID_1_" points="209,31.5 79,31.5 14.1,144 79,256.5 209,256.5 273.9,144 					"/>
				</defs>
				<clipPath id="SVGID_00000132792406570702434470000000844034256448636815_">
					<use xlink:href="#SVGID_1_"  style="overflow:visible;"/>
				</clipPath>
				<g style="clip-path:url(#SVGID_00000132792406570702434470000000844034256448636815_);">
					<g>
						<polygon class="st3" points="184.3,125.2 142.4,69.3 82.2,50.6 129.8,114.2 						"/>
						<polygon class="st3" points="44.3,103.3 -47,84.9 13.4,171.6 100.3,178.1 						"/>
						<polygon class="st3" points="120.6,112.4 72,47.5 -8.2,22.7 47.9,97.7 						"/>
						<polygon class="st3" points="-18.4,19.5 -113,-9.7 -52.2,77.5 38.7,95.8 						"/>
						<polygon class="st3" points="187.2,190.9 234.8,254.5 279.1,251.9 236.3,194.6 						"/>
						<polygon class="st3" points="113.6,185.4 168.2,258.4 227.3,254.9 178.9,190.3 						"/>
						<polygon class="st3" points="18,178.2 77.6,263.7 160.7,258.8 105.3,184.7 						"/>
						<polygon class="st3" points="286.6,251.4 334.5,248.6 291.8,198.8 244.5,195.2 						"/>
						<polygon class="st3" points="238,136.1 194.5,85.4 152.6,72.4 193.5,127.1 						"/>
						<polygon class="st3" points="53.5,105.2 108.6,178.7 173.9,183.6 126.2,119.9 						"/>
						<polygon class="st3" points="239.6,188.6 286,192.1 244.6,143.8 199.2,134.6 						"/>
						<polygon class="st3" points="182.2,184.3 231.3,187.9 190,132.8 135.4,121.7 						"/>
						<polygon class="st3" points="13.4,171.6 5.3,170.9 9.9,177.6 18,178.2 						"/>
						<polygon class="st3" points="291.8,198.8 300.6,199.4 294.9,192.7 286,192.1 						"/>
						<polygon class="st3" points="160.7,258.8 165.2,264.8 172.7,264.4 168.2,258.4 						"/>
						<polygon class="st3" points="227.3,254.9 231.8,260.9 239.3,260.5 234.8,254.5 						"/>
						<polygon class="st3" points="279.1,251.9 283.6,257.9 291.1,257.4 286.6,251.4 						"/>
					</g>
				</g>
			</g>
			<g>
				<defs>
					<polygon id="SVGID_00000087390134446311317020000007801537495198612897_" points="14.1,144 79,256.5 209,256.5 273.9,144 
						209,31.5 79,31.5 					"/>
				</defs>
				<clipPath id="SVGID_00000132795980673302835180000018095550949473138583_">
					<use xlink:href="#SVGID_00000087390134446311317020000007801537495198612897_"  style="overflow:visible;"/>
				</clipPath>
				<g style="clip-path:url(#SVGID_00000132795980673302835180000018095550949473138583_);">
					<g>
						<defs>
							<polygon id="SVGID_00000125578728435244570330000006924950205228956807_" points="11.8,142.6 78.1,257.5 210.8,257.5 
								277.2,142.6 210.8,27.7 78.1,27.7 							"/>
						</defs>
						<clipPath id="SVGID_00000060026981647624161070000001482126367635027106_">
							<use xlink:href="#SVGID_00000125578728435244570330000006924950205228956807_"  style="overflow:visible;"/>
						</clipPath>
						<g style="clip-path:url(#SVGID_00000060026981647624161070000001482126367635027106_);">
							<rect x="-120.4" y="22.3" class="st6" width="460" height="246.5"/>
							<text transform="matrix(-1 0 0 1 161.1982 186.0361)" class="st7 st8 st9">C75429</text>
						</g>
					</g>
					<g>
						<defs>
							<polygon id="SVGID_00000103970539827370893570000001216869924574983571_" points="11.8,142.6 78.1,257.5 210.8,257.5 
								277.2,142.6 210.8,27.7 78.1,27.7 							"/>
						</defs>
						<clipPath id="SVGID_00000176766178605962975990000005303317205121660843_">
							<use xlink:href="#SVGID_00000103970539827370893570000001216869924574983571_"  style="overflow:visible;"/>
						</clipPath>
						<g style="clip-path:url(#SVGID_00000176766178605962975990000005303317205121660843_);">
							<polyline class="st11" points="-32.4,4.5 322.7,4.5 322.7,277.7 -32.4,277.7 							"/>
							<g>
								<polygon class="st12" points="265.2,161.2 320,159.7 320,122.6 265.2,121 								"/>
								<polygon class="st12" points="257.6,68.4 257.6,33.9 192.3,24.5 192.3,63.1 								"/>
								<polygon class="st12" points="262.6,68.9 320,73.6 320,42.9 262.6,34.6 								"/>
								<polygon class="st12" points="186.7,62.6 186.7,23.7 146.2,17.9 70.5,27.1 70.5,65.9 146,59.3 146.2,59.3 								"/>
								<polygon class="st12" points="3.6,210.2 3.6,244.6 67.1,255.1 67.1,216.4 								"/>
								<polygon class="st12" points="192.3,220 192.3,260.9 262.7,249.8 262.7,213.8 								"/>
								<polygon class="st12" points="268.3,213.3 268.3,248.9 320,240.7 320,208.7 								"/>
								<polygon class="st12" points="72.7,216.9 72.7,256 146.2,268.2 186.7,261.8 186.7,220.5 146.2,224 								"/>
								<polygon class="st12" points="64.8,66.4 64.8,27.8 4.4,35.1 4.4,71.6 								"/>
								<polygon class="st12" points="72.5,119.6 72.5,162.3 146.2,164.6 186.7,163.4 186.7,118.7 146.2,117.6 								"/>
								<polygon class="st12" points="192.3,118.9 192.3,163.3 259.6,161.4 259.6,120.8 								"/>
								<polygon class="st12" points="30.7,166.6 30.7,207.2 100.6,214 100.6,168.8 								"/>
								<polygon class="st12" points="105.5,168.9 105.5,214.5 146.2,218.4 218.7,212 218.7,168.1 146.3,170.2 146.2,170.2 								
									"/>
								<polygon class="st12" points="-0.2,121.6 -0.2,160 67.4,162.1 67.4,119.7 								"/>
								<polygon class="st12" points="25.8,166.4 -28.7,164.7 -28.7,201.4 25.8,206.7 								"/>
								<polyline class="st12" points="105.5,69.4 105.5,113.1 146.2,111.9 146.2,111.9 223.1,114.2 223.1,71.2 146.2,64.9 
									105.7,68.5 								"/>
								<polyline class="st12" points="-28.7,80.1 -28.7,116.8 26,115.2 26,115.2 26,75.8 								"/>
								<polygon class="st12" points="30.5,75.8 30.5,115.2 100.6,113.2 100.6,69.4 								"/>
								<polygon class="st12" points="228.7,71.7 228.7,114.3 291.2,116.1 291.2,76.8 								"/>
								<polygon class="st12" points="224.3,168 224.3,211.5 291.2,205.6 291.2,166.1 								"/>
							</g>
							<g>
								<g>
									<defs>
										<polyline id="SVGID_00000022518344752683993880000015206477509081470086_" points="145.1,4.5 322.7,4.5 322.7,277.7 
											145.1,277.7 										"/>
									</defs>
									<clipPath id="SVGID_00000168114798723626478300000000821798515630520964_">
										<use xlink:href="#SVGID_00000022518344752683993880000015206477509081470086_"  style="overflow:visible;"/>
									</clipPath>
									<g style="clip-path:url(#SVGID_00000168114798723626478300000000821798515630520964_);">
										<polygon class="st14" points="3.6,210.2 3.6,244.6 67.1,255.1 67.1,216.4 										"/>
										<polygon class="st14" points="64.8,66.4 64.8,27.8 4.4,35.1 4.4,71.6 										"/>
										<polygon class="st14" points="30.7,166.6 30.7,207.2 100.6,214 100.6,168.8 										"/>
										<polygon class="st14" points="-0.2,121.6 -0.2,160 67.4,162.1 67.4,119.7 										"/>
										<polygon class="st14" points="25.8,166.4 -28.7,164.7 -28.7,201.4 25.8,206.7 										"/>
										<polyline class="st14" points="-28.7,80.1 -28.7,116.8 26,115.2 26,115.2 26,75.8 										"/>
										<polygon class="st14" points="30.5,75.8 30.5,115.2 100.6,113.2 100.6,69.4 										"/>
										<polygon class="st14" points="265.2,161.2 320,159.7 320,122.6 265.2,121 										"/>
										<polygon class="st14" points="257.6,68.4 257.6,33.9 192.3,24.5 192.3,63.1 										"/>
										<polygon class="st14" points="262.6,68.9 320,73.6 320,42.9 262.6,34.6 										"/>
										<polygon class="st14" points="186.7,62.6 186.7,23.7 146.2,17.9 70.5,27.1 70.5,65.9 146,59.3 146.2,59.3 										"/>
										<polygon class="st14" points="192.3,220 192.3,260.9 262.7,249.8 262.7,213.8 										"/>
										<polygon class="st14" points="268.3,213.3 268.3,248.9 320,240.7 320,208.7 										"/>
										<polygon class="st14" points="72.7,216.9 72.7,256 146.2,268.2 186.7,261.8 186.7,220.5 146.2,224 										"/>
										<polygon class="st14" points="72.5,119.6 72.5,162.3 146.2,164.6 186.7,163.4 186.7,118.7 146.2,117.6 										"/>
										<polygon class="st14" points="192.3,118.9 192.3,163.3 259.6,161.4 259.6,120.8 										"/>
										<polygon class="st14" points="105.5,168.9 105.5,214.5 146.2,218.4 218.7,212 218.7,168.1 146.3,170.2 146.2,170.2 
																					"/>
										<polyline class="st14" points="105.5,69.4 105.5,113.1 146.2,111.9 146.2,111.9 223.1,114.2 223.1,71.2 146.2,64.9 
											105.7,68.5 										"/>
										<polygon class="st14" points="228.7,71.7 228.7,114.3 291.2,116.1 291.2,76.8 										"/>
										<polygon class="st14" points="224.3,168 224.3,211.5 291.2,205.6 291.2,166.1 										"/>
									</g>
								</g>
							</g>
						</g>
					</g>
				</g>
			</g>
		</g>
	</g>
	<g>
		<path class="st14" d="M185.5,197.6h-83c-6.5,0-11.8-5.3-11.8-11.8v-80.2c0-6.5,5.3-11.8,11.8-11.8h83c6.5,0,11.8,5.3,11.8,11.8
			v80.2C197.3,192.3,192,197.6,185.5,197.6z"/>
		<path class="st15" d="M185.5,194.2h-83c-6.5,0-11.8-5.3-11.8-11.8v-80.2c0-6.5,5.3-11.8,11.8-11.8h83c6.5,0,11.8,5.3,11.8,11.8
			v80.2C197.3,188.9,192,194.2,185.5,194.2z"/>
	</g>
</g>
<g id="rolled_number">
	<g>
		<text transform="matrix(1 0 0 1 122.5923 155.752)" class="st14 st16 st17 st18">6</text>
	</g>
</g>
<g id="number_five">
	<g>
		<g>
			<circle class="st14" cx="116" cy="178.2" r="4.5"/>
			<circle class="st14" cx="130" cy="178.2" r="4.5"/>
			<circle class="st14" cx="144" cy="178.2" r="4.5"/>
			<circle class="st14" cx="158" cy="178.2" r="4.5"/>
			<circle class="st14" cx="172" cy="178.2" r="4.5"/>
		</g>
	</g>
</g>
<g id="number_four">
	<g>
		<g>
			<circle class="st14" cx="123" cy="178.2" r="4.5"/>
			<circle class="st14" cx="137" cy="178.2" r="4.5"/>
			<circle class="st14" cx="151" cy="178.2" r="4.5"/>
			<circle class="st14" cx="165" cy="178.2" r="4.5"/>
		</g>
	</g>
</g>
<g id="number_three">
	<g>
		<g>
			<circle class="st14" cx="130" cy="178.2" r="4.5"/>
			<circle class="st14" cx="144" cy="178.2" r="4.5"/>
			<circle class="st14" cx="158" cy="178.2" r="4.5"/>
		</g>
	</g>
</g>
<g id="number_two">
	<g>
		<g>
			<circle class="st14" cx="137" cy="178.2" r="4.5"/>
			<circle class="st14" cx="151" cy="178.2" r="4.5"/>
		</g>
	</g>
</g>
<g id="number_one">
	<g>
		<g>
			<circle class="st14" cx="144" cy="178.2" r="4.5"/>
		</g>
	</g>
</g>
</svg>
