<?xml version="1.0" encoding="utf-8"?>
<!-- Generator: Adobe Illustrator 26.5.0, SVG Export Plug-In . SVG Version: 6.00 Build 0)  -->
<svg version="1.1" xmlns="http://www.w3.org/2000/svg" xmlns:xlink="http://www.w3.org/1999/xlink" x="0px" y="0px"
	 viewBox="0 0 288 288" style="enable-background:new 0 0 288 288;" xml:space="preserve">
<style type="text/css">
	.st0{fill:#564256;}
	.st1{opacity:0.5;fill:url(#SVGID_1_);enable-background:new    ;}
	.st2{clip-path:url(#SVGID_00000124162843640805087330000010809782842078807173_);}
	.st3{fill:none;}
	.st4{fill:#EFE4EC;}
	.st5{fill:#C5AFBF;}
	.st6{fill:#A58E9F;}
	.st7{fill:#80637E;}
	.st8{fill:#522C72;}
	.st9{fill:#FFFFFF;}
	.st10{font-family:'Montserrat';}
	.st11{font-size:69.3941px;}
	.st12{letter-spacing:-6;}
</style>
<g id="Layer_1">
	<g>
		<g>
			<path class="st0" d="M209,31.5L274,144l-65,112.5H79L14.1,144L79,31.5H209 M215,21h-6H79h-6l-3,5.2L5,138.8L2,144l3,5.2l65,112.5
				l3,5.2h6h130h6l3-5.2l65-112.5l3-5.2l-3-5.2L218,26.3L215,21L215,21z"/>
		</g>
		
			<radialGradient id="SVGID_1_" cx="144" cy="144" r="121.5118" gradientTransform="matrix(1 0 0 -1 0 288)" gradientUnits="userSpaceOnUse">
			<stop  offset="0" style="stop-color:#FFFFFF"/>
			<stop  offset="0.3365" style="stop-color:#FDFDFD"/>
			<stop  offset="0.4975" style="stop-color:#F6F5F6"/>
			<stop  offset="0.6212" style="stop-color:#EAE8EA"/>
			<stop  offset="0.7259" style="stop-color:#D8D6D8"/>
			<stop  offset="0.8185" style="stop-color:#C2BEC2"/>
			<stop  offset="0.9026" style="stop-color:#A6A0A6"/>
			<stop  offset="0.9787" style="stop-color:#857E85"/>
			<stop  offset="1" style="stop-color:#7B737B"/>
		</radialGradient>
		<polygon class="st1" points="209,31.5 79,31.5 14.1,144 79,256.5 209,256.5 273.9,144 		"/>
		<g>
			<g>
				<defs>
					<polygon id="SVGID_00000181079575680270510530000016345626554579378605_" points="209,31.5 79,31.5 14.1,144 79,256.5 
						209,256.5 273.9,144 					"/>
				</defs>
				<clipPath id="SVGID_00000004518189743331136620000016513285585321354628_">
					<use xlink:href="#SVGID_00000181079575680270510530000016345626554579378605_"  style="overflow:visible;"/>
				</clipPath>
				<g style="clip-path:url(#SVGID_00000004518189743331136620000016513285585321354628_);">
					<path class="st3" d="M34.7,73.6c-0.4,0-1,0-1.8,0H33c26.2,1.5,51.9,5.4,78.2,6.1c5.1,0.1,10.2,0.2,15.3,0.2
						c-4.6,0-9.1-0.1-13.7-0.2C86.6,79,61,75.1,34.7,73.6z"/>
					<path class="st4" d="M32.9,73.6c0.8,0,1.4,0,1.8,0c26.2,1.5,51.9,5.4,78.2,6.1c4.6,0.1,9.1,0.2,13.7,0.2
						c22-0.1,44-1.6,65.5-5.8c38.2-7.4,75-21.5,108.6-41.1c9.3-5.4,18.3-11.2,27.1-17.4c0.4-0.3,0.7-0.5,1.1-0.8v-1.6h-315v61.1
						C22.5,73.9,30.8,73.5,32.9,73.6z"/>
					<path class="st5" d="M150.2,124.5c32.6,21.2,70.8,27.9,105.4,28.2c22.8-9.4,48.5-16.5,73.3-20V16c-8.6,6-17.5,11.7-26.5,17
						C268.8,52.6,232,66.7,193.8,74.1c-22.1,4.3-44.7,5.8-67.2,5.8c-5.1,0-10.2-0.1-15.3-0.2c-26.3-0.7-52-4.6-78.2-6.1H33
						c-3.7,0.1-11.4,0.5-19.1,0.8v35.9C47.2,99.1,99.5,91.5,150.2,124.5z"/>
					<path class="st5" d="M13.9,74.3L13.9,74.3c7.7-0.2,15.4-0.6,19.1-0.7C30.8,73.5,22.5,73.9,13.9,74.3z"/>
					<path class="st5" d="M300.8,33c-33.6,19.6-70.4,33.7-108.6,41.1c-21.6,4.2-43.6,5.7-65.5,5.8c22.5,0,45.1-1.5,67.2-5.8
						c38.2-7.4,75-21.5,108.6-41.1c9.1-5.3,17.9-11,26.5-17v-1.2c-0.4,0.3-0.7,0.5-1.1,0.8C319.1,21.8,310,27.6,300.8,33z"/>
					<path class="st6" d="M211.5,176.3L13.9,147.5l89.2,34.1C103,181.6,162.3,205.3,211.5,176.3z"/>
					<path class="st6" d="M211.5,176.3c1.7-1,3.4-2.1,5.1-3.2c11.1-7.5,24.5-14.4,39.1-20.4c-34.6-0.3-72.9-7-105.4-28.2
						c-50.8-33-103-25.4-136.4-14.3v37.3L211.5,176.3z"/>
					<path class="st7" d="M163.5,230.2c0,0,36.5,22.2,74.2-6.5c1.8-1.3,3.6-2.7,5.4-4.1L109.3,205
						C125.9,211.2,144.1,219.4,163.5,230.2z"/>
					<path class="st7" d="M329,144.8v-12.1c-24.8,3.5-50.5,10.6-73.3,20C284.3,153,310.5,148.8,329,144.8z"/>
					<path class="st7" d="M109.3,205l133.8,14.7c14.7-10.8,32.1-22,48.4-31.7l-80-11.7c-49.2,29-108.5,5.3-108.5,5.3l-89.2-34.1v39
						C33.5,186.1,66.4,188.9,109.3,205z"/>
					<path class="st7" d="M255.7,152.7c-14.6,6-27.9,12.9-39.1,20.4c-1.7,1.1-3.4,2.2-5.1,3.2l80,11.7l0,0l37.4-30.9v-12.3
						C310.5,148.8,284.3,153,255.7,152.7z"/>
					<polygon class="st3" points="13.9,253.5 159.2,253.5 13.9,218.2 					"/>
					<polygon class="st3" points="259.7,221.5 201.7,253.5 329,253.5 329,223.7 327.3,228.9 					"/>
					<polygon class="st8" points="327.3,228.9 329,223.7 329,183.2 259.7,221.5 					"/>
					<path class="st0" d="M243.2,219.7c-1.9,1.4-3.7,2.7-5.4,4.1c-37.6,28.7-74.2,6.5-74.2,6.5c-19.5-10.8-37.6-19-54.2-25.3
						l-95.5-10.5v72.2l148.5-3.4l39.4-1.1l57.9-40.6L243.2,219.7z"/>
					<path class="st0" d="M13.9,186.5v8l95.5,10.5C66.4,188.9,33.5,186.1,13.9,186.5z"/>
					<path class="st8" d="M291.6,188L291.6,188c-16.3,9.6-33.8,20.9-48.4,31.7l16.5,1.8l69.3-38.3v-15.1
						C319,172.5,305.7,179.7,291.6,188L291.6,188z"/>
				</g>
			</g>
		</g>
	</g>
	<g>
		<path class="st0" d="M185.5,197.6h-83c-6.5,0-11.8-5.3-11.8-11.8v-80.2c0-6.5,5.3-11.8,11.8-11.8h83c6.5,0,11.8,5.3,11.8,11.8
			v80.2C197.3,192.3,192,197.6,185.5,197.6z"/>
		<path class="st9" d="M185.5,194.2h-83c-6.5,0-11.8-5.3-11.8-11.8v-80.2c0-6.5,5.3-11.8,11.8-11.8h83c6.5,0,11.8,5.3,11.8,11.8
			v80.2C197.3,188.9,192,194.2,185.5,194.2z"/>
	</g>
</g>
<g id="rolled_number">
	<g>
		<text transform="matrix(1 0 0 1 122.5923 155.752)" class="st0 st10 st11 st12">6</text>
	</g>
</g>
<g id="number_five">
	<g>
		<circle class="st0" cx="116" cy="178.2" r="4.5"/>
		<circle class="st0" cx="130" cy="178.2" r="4.5"/>
		<circle class="st0" cx="144" cy="178.2" r="4.5"/>
		<circle class="st0" cx="158" cy="178.2" r="4.5"/>
		<circle class="st0" cx="172" cy="178.2" r="4.5"/>
	</g>
</g>
<g id="number_four">
	<g>
		<circle class="st0" cx="123" cy="178.2" r="4.5"/>
		<circle class="st0" cx="137" cy="178.2" r="4.5"/>
		<circle class="st0" cx="151" cy="178.2" r="4.5"/>
		<circle class="st0" cx="165" cy="178.2" r="4.5"/>
	</g>
</g>
<g id="number_three">
	<g>
		<circle class="st0" cx="130" cy="178.2" r="4.5"/>
		<circle class="st0" cx="144" cy="178.2" r="4.5"/>
		<circle class="st0" cx="158" cy="178.2" r="4.5"/>
	</g>
</g>
<g id="number_two">
	<g>
		<circle class="st0" cx="137" cy="178.2" r="4.5"/>
		<circle class="st0" cx="151" cy="178.2" r="4.5"/>
	</g>
</g>
<g id="number_one">
	<circle class="st0" cx="144" cy="178.2" r="4.5"/>
</g>
</svg>
