<?xml version="1.0" encoding="utf-8"?>
<!-- Generator: Adobe Illustrator 26.5.0, SVG Export Plug-In . SVG Version: 6.00 Build 0)  -->
<svg version="1.1" xmlns="http://www.w3.org/2000/svg" xmlns:xlink="http://www.w3.org/1999/xlink" x="0px" y="0px"
	 viewBox="0 0 288 288" style="enable-background:new 0 0 288 288;" xml:space="preserve">
<style type="text/css">
	.st0{fill:#683F1F;}
	.st1{fill:#70451D;}
	.st2{fill:#E4AF44;stroke:#A07D3F;stroke-width:0.5937;stroke-miterlimit:10;}
	.st3{clip-path:url(#SVGID_00000078726486918081280960000016103125332669287050_);}
	.st4{fill:#B6783A;}
	.st5{fill:#A24D26;}
	.st6{fill:#FFFFFF;}
	.st7{font-family:'Montserrat', sans-serif; font-weight: 700;}
	.st8{font-size:86.7426px;}
</style>
<g id="Layer_1">
	<g>
		<g>
			<polygon class="st0" points="76,262.8 8,145 76,27.3 212,27.3 280,145 212,262.8 			"/>
			<path class="st1" d="M209,32.5L274,145l-65,112.5H79L14.1,145L79,32.5H209 M215,22h-6H79h-6l-3,5.2L5,139.8L2,145l3,5.2l65,112.5
				l3,5.2h6h130h6l3-5.2l65-112.5l3-5.2l-3-5.2L218,27.3L215,22L215,22z"/>
		</g>
		<polygon class="st2" points="209,32.5 79,32.5 14.1,145 79,257.5 209,257.5 273.9,145 		"/>
		<g>
			<g>
				<g>
					<defs>
						<polygon id="SVGID_1_" points="209.1,32.5 79,32.5 14.1,145 79,257.5 209.1,257.5 274,145 						"/>
					</defs>
					<clipPath id="SVGID_00000176033335822938499410000007014705344085868711_">
						<use xlink:href="#SVGID_1_"  style="overflow:visible;"/>
					</clipPath>
					<g style="clip-path:url(#SVGID_00000176033335822938499410000007014705344085868711_);">
						<g>
							<polygon class="st4" points="184.4,126.3 142.4,70.3 82.2,51.7 129.9,115.3 							"/>
							<polygon class="st4" points="44.3,104.4 -47,85.9 13.4,172.6 100.3,179.1 							"/>
							<polygon class="st4" points="120.6,113.4 72,48.5 -8.2,23.7 47.9,98.7 							"/>
							<polygon class="st4" points="-18.4,20.6 -113,-8.7 -52.2,78.5 38.7,96.9 							"/>
							<polygon class="st4" points="187.2,191.9 234.9,255.5 279.1,252.9 236.2,195.6 							"/>
							<polygon class="st4" points="113.5,186.4 168.2,259.4 227.4,256 178.9,191.3 							"/>
							<polygon class="st4" points="18,179.2 77.6,264.8 160.8,259.9 105.3,185.8 							"/>
							<polygon class="st4" points="286.6,252.5 334.5,249.6 291.9,199.8 244.6,196.3 							"/>
							<polygon class="st4" points="238.1,137.1 194.6,86.5 152.6,73.5 193.6,128.1 							"/>
							<polygon class="st4" points="53.5,106.2 108.6,179.8 173.9,184.7 126.2,120.9 							"/>
							<polygon class="st4" points="239.6,189.6 286,193.1 244.6,144.8 199.2,135.7 							"/>
							<polygon class="st4" points="182.2,185.3 231.4,189 190.1,133.8 135.4,122.8 							"/>
							<polygon class="st4" points="13.4,172.6 5.3,172 9.9,178.6 18,179.2 							"/>
							<polygon class="st4" points="291.9,199.8 300.6,200.5 295,193.8 286,193.1 							"/>
							<polygon class="st4" points="160.8,259.9 165.2,265.9 172.8,265.4 168.2,259.4 							"/>
							<polygon class="st4" points="227.4,256 231.9,262 239.4,261.5 234.9,255.5 							"/>
							<polygon class="st4" points="279.1,252.9 283.6,258.9 291.1,258.5 286.6,252.5 							"/>
						</g>
					</g>
				</g>
			</g>
		</g>
	</g>
	<g style="transform:scale(0.85) translate(30px,30px);">
		<path class="st5" d="M195.8,211H92.2c-8.1,0-14.8-6.6-14.8-14.8V96c0-8.1,6.6-14.8,14.8-14.8h103.7c8.1,0,14.8,6.6,14.8,14.8
			v100.2C210.6,204.4,204,211,195.8,211z"/>
		<path class="st6" d="M195.8,206.7H92.2c-8.1,0-14.8-6.6-14.8-14.8V91.8C77.4,83.6,84,77,92.2,77h103.7c8.1,0,14.8,6.6,14.8,14.8
			V192C210.6,200.1,204,206.7,195.8,206.7z"/>
					<g style="transform: translate(-8px,-8px)">

		<text transform="matrix(1 0 0 1 114.2673 158.6904)" class="st1 st7 st8">6</text>
		</g>
	</g>
</g>
<g id="_x35_">
	<g>
		<g>
			<circle class="st1" cx="108.9" cy="186.8" r="5.7"/>
			<circle class="st1" cx="126.5" cy="186.8" r="5.7"/>
			<circle class="st1" cx="144" cy="186.8" r="5.7"/>
			<circle class="st1" cx="161.5" cy="186.8" r="5.7"/>
			<circle class="st1" cx="179.1" cy="186.8" r="5.7"/>
		</g>
	</g>
</g>
<g id="_x34_">
	<g>
		<g>
			<circle class="st1" cx="117.7" cy="186.8" r="5.7"/>
			<circle class="st1" cx="135.2" cy="186.8" r="5.7"/>
			<circle class="st1" cx="152.8" cy="186.8" r="5.7"/>
			<circle class="st1" cx="170.3" cy="186.8" r="5.7"/>
		</g>
	</g>
</g>
<g id="_x33_">
	<g>
		<g>
			<circle class="st1" cx="126.5" cy="186.8" r="5.7"/>
			<circle class="st1" cx="144" cy="186.8" r="5.7"/>
			<circle class="st1" cx="161.5" cy="186.8" r="5.7"/>
		</g>
	</g>
</g>
<g id="_x32_">
	<g>
		<g>
			<circle class="st1" cx="135.2" cy="186.8" r="5.7"/>
			<circle class="st1" cx="152.8" cy="186.8" r="5.7"/>
		</g>
	</g>
</g>
<g id="_x31_">
	<circle class="st1" cx="144" cy="186.8" r="5.7"/>
</g>
</svg>
