<?xml version="1.0" encoding="utf-8"?>
<!-- Generator: Adobe Illustrator 26.5.0, SVG Export Plug-In . SVG Version: 6.00 Build 0)  -->
<svg version="1.1" xmlns="http://www.w3.org/2000/svg" xmlns:xlink="http://www.w3.org/1999/xlink" x="0px" y="0px"
	 viewBox="0 0 288 288" style="enable-background:new 0 0 288 288;" xml:space="preserve">
<style type="text/css">
	.st0{fill:#112E47;}
	.st1{clip-path:url(#SVGID_00000137839991898448504260000012167379844505044612_);}
	.st2{fill:#184866;}
	.st3{fill:#2695CC;}
	.st4{fill:#89AFDA;}
	.st5{fill:#FFFFFF;}
	.st6{font-family:'Futura-Bold';}
	.st7{font-size:86.7426px;}
	.st8{display:none;}
	.st9{display:inline;}
</style>
<g id="Layer_1">
	<g>
		<g>
			<path class="st0" d="M209,31.5L274,144l-65,112.5H79L14.1,144L79,31.5H209 M215,21h-6H79h-6l-3,5.2L5,138.8L2,144l3,5.2l65,112.5
				l3,5.2h6h130h6l3-5.2l65-112.5l3-5.2l-3-5.2L218,26.3L215,21L215,21z"/>
		</g>
		<polygon class="st0" points="209,31.5 79,31.5 14.1,144 79,256.5 209,256.5 273.9,144 		"/>
		<g>
			<g>
				<defs>
					<polygon id="SVGID_1_" points="209,31.5 79,31.5 14.1,144 79,256.5 209,256.5 273.9,144 					"/>
				</defs>
				<clipPath id="SVGID_00000063595004269844487110000011413496709477336731_">
					<use xlink:href="#SVGID_1_"  style="overflow:visible;"/>
				</clipPath>
				<g style="clip-path:url(#SVGID_00000063595004269844487110000011413496709477336731_);">
					<path class="st2" d="M293.5,137.2c-33.6-32.4-105.1,0-105.1,0l-77.1,39.1c12.3,7.4,24.5,14.7,37.2,21.3
						c27.3,14.2,56.2,30.2,87.9,29.8c7.1-0.1,14.2-1.1,21.1-2.8c17.8-4.6,34.4-13.3,49.2-24.4c0-0.4,0.1-0.8,0.1-1.2v-33
						C305.1,154.6,301.1,144.5,293.5,137.2z"/>
					<path class="st3" d="M111.3,176.3c-15.8-9.5-31.5-18.9-48.2-26.7c-29.3-13.7-68.7-13.7-95.3,6.6v101.5h324.5
						c2.5-6.9,11.1-31.4,14.3-57.5c-14.8,11.1-31.4,19.8-49.2,24.4c-6.9,1.8-14,2.7-21.1,2.8c-31.7,0.5-60.6-15.5-87.9-29.8
						C135.9,191,123.6,183.7,111.3,176.3"/>
					<ellipse class="st4" cx="97" cy="116.2" rx="24.9" ry="24.9"/>
					<ellipse class="st4" cx="131.6" cy="73.3" rx="14.4" ry="14.4"/>
					<ellipse class="st4" cx="153.6" cy="111.2" rx="5.5" ry="5.5"/>
				</g>
			</g>
		</g>
	</g>
	<g style="transform:scale(0.85) translate(30px,30px);">
		<path class="st0" d="M195.8,211H92.2c-8.1,0-14.8-6.6-14.8-14.8V96c0-8.1,6.6-14.8,14.8-14.8h103.7c8.1,0,14.8,6.6,14.8,14.8
			v100.2C210.6,204.4,204,211,195.8,211z"/>
		<path class="st5" d="M195.8,206.7H92.2c-8.1,0-14.8-6.6-14.8-14.8V91.8C77.4,83.6,84,77,92.2,77h103.7c8.1,0,14.8,6.6,14.8,14.8
			V192C210.6,200.1,204,206.7,195.8,206.7z"/>
					<g style="transform: translate(-8px,0px)">

		<text transform="matrix(1 0 0 1 114.2673 158.6904)" class="st0 st6 st7">6</text>
		</g>
	</g>
</g>
<g id="_x35_">
	<g class="st8">
		<g class="st9">
			<circle class="st0" cx="135.2" cy="186.8" r="5.7"/>
			<circle class="st0" cx="152.8" cy="186.8" r="5.7"/>
		</g>
	</g>
	<g>
		<circle class="st0" cx="108.9" cy="186.8" r="5.7"/>
		<circle class="st0" cx="126.5" cy="186.8" r="5.7"/>
		<circle class="st0" cx="144" cy="186.8" r="5.7"/>
		<circle class="st0" cx="161.5" cy="186.8" r="5.7"/>
		<circle class="st0" cx="179.1" cy="186.8" r="5.7"/>
	</g>
</g>
<g id="_x34_">
	<g>
		<g>
			<circle class="st0" cx="117.7" cy="186.8" r="5.7"/>
			<circle class="st0" cx="135.2" cy="186.8" r="5.7"/>
			<circle class="st0" cx="152.8" cy="186.8" r="5.7"/>
			<circle class="st0" cx="170.3" cy="186.8" r="5.7"/>
		</g>
	</g>
</g>
<g id="_x33_">
	<g>
		<g>
			<circle class="st0" cx="126.5" cy="186.8" r="5.7"/>
			<circle class="st0" cx="144" cy="186.8" r="5.7"/>
			<circle class="st0" cx="161.5" cy="186.8" r="5.7"/>
		</g>
	</g>
</g>
<g id="_x32_">
	<g>
		<circle class="st0" cx="135.2" cy="186.8" r="5.7"/>
		<circle class="st0" cx="152.8" cy="186.8" r="5.7"/>
	</g>
</g>
<g id="_x31_">
	<circle class="st0" cx="144" cy="186.8" r="5.7"/>
</g>
</svg>
