<?xml version="1.0" encoding="utf-8"?>
<!-- Generator: Adobe Illustrator 26.5.0, SVG Export Plug-In . SVG Version: 6.00 Build 0)  -->
<svg version="1.1" id="Layer_1" xmlns="http://www.w3.org/2000/svg" xmlns:xlink="http://www.w3.org/1999/xlink" x="0px" y="0px"
	 viewBox="0 0 288 288" style="enable-background:new 0 0 288 288;" xml:space="preserve">
<style type="text/css">
	.st0{fill:#6094CE;}
	.st1{fill:#FFFFFF;}
	.st2{fill:#1A3B69;}
	.st3{fill:#D2E1DA;}
	.st4{fill:#C2862B;}
	.st5{fill:#EEAC21;stroke:#F0BB4F;stroke-width:1.3363;stroke-miterlimit:10;}
	.st6{fill:#9C4722;}
	.st7{fill:#F48459;}
	.st8{fill:#D7D1D2;}
	.st9{fill:#7D727B;}
	.st10{fill:#89A19A;}
	.st11{fill:#A8D165;}
	.st12{fill:#639540;}
	.st13{fill:#688C3F;}
	.st14{fill:#89BF58;}
	.st15{fill:#962D28;}
	.st16{fill:#574357;}
	.st17{fill:#A58FA0;}
</style>
<g>
	<g>
		<path class="st0" d="M123.7,234.8c-33.2,0.4-59.7-26.7-58.8-59.9c0.7-24.5,9.3-46.5,22.4-66.5c9.8-15,21.5-28.6,32.3-42.9
			c2.7-3.5,4.8-3.1,7.6,0c20.6,22.6,38.2,47.1,48.4,76.2c5.3,15.2,8.8,30.9,5,47.4C174.2,216.4,151.9,234.5,123.7,234.8z
			 M120.9,219.3c-8.8-6.1-17.2-10.5-23.6-16.9c-6.4-6.5-10.8-15-16.1-22.6c-3.3,6.7,0.3,19.7,8.2,28
			C97.6,216.3,107.3,221.1,120.9,219.3z"/>
		<path class="st1" d="M120.9,219.3c-13.6,1.8-23.3-3-31.4-11.5c-7.9-8.3-11.5-21.3-8.2-28c5.3,7.6,9.7,16.1,16.1,22.6
			C103.7,208.8,112.1,213.1,120.9,219.3z"/>
	</g>
	<g>
		<path class="st2" d="M182.3,177.6c-23.2,0.3-41.6-18.6-41-41.8c0.5-17.1,6.5-32.4,15.6-46.4c6.8-10.4,15-20,22.6-29.9
			c1.9-2.5,3.3-2.2,5.3,0c14.4,15.7,26.7,32.8,33.8,53.1c3.7,10.6,6.1,21.6,3.5,33C217.5,164.7,202,177.3,182.3,177.6z M180.3,166.7
			c-6.1-4.3-12-7.3-16.4-11.8c-4.5-4.5-7.5-10.5-11.2-15.8c-2.3,4.7,0.2,13.8,5.7,19.5C164.1,164.6,170.9,168,180.3,166.7z"/>
		<path class="st3" d="M180.3,166.7c-9.5,1.3-16.2-2.1-21.9-8c-5.5-5.8-8-14.8-5.7-19.5c3.7,5.3,6.7,11.3,11.2,15.8
			C168.3,159.4,174.2,162.4,180.3,166.7z"/>
	</g>
</g>
</svg>
