<?xml version="1.0" encoding="utf-8"?>
<!-- Generator: Adobe Illustrator 26.5.0, SVG Export Plug-In . SVG Version: 6.00 Build 0)  -->
<svg version="1.1" id="Layer_1" xmlns="http://www.w3.org/2000/svg" xmlns:xlink="http://www.w3.org/1999/xlink" x="0px" y="0px"
	 viewBox="0 0 288 288" style="enable-background:new 0 0 288 288;" xml:space="preserve">
<style type="text/css">
	.st0{fill:#6094CE;}
	.st1{fill:#FFFFFF;}
	.st2{fill:#1A3B69;}
	.st3{fill:#D2E1DA;}
	.st4{fill:#C2862B;}
	.st5{fill:#EEAC21;stroke:#F0BB4F;stroke-width:1.3363;stroke-miterlimit:10;}
	.st6{fill:#9C4722;}
	.st7{fill:#F48459;}
	.st8{fill:#D7D1D2;}
	.st9{fill:#7D727B;}
	.st10{fill:#89A19A;}
	.st11{fill:#A8D165;}
	.st12{fill:#639540;}
	.st13{fill:#688C3F;}
	.st14{fill:#89BF58;}
	.st15{fill:#962D28;}
	.st16{fill:#574357;}
	.st17{fill:#A58FA0;}
</style>
<g>
	<path class="st15" d="M169.8,170.8h-110c-2.6,0-4.6-2.1-4.6-4.6v-44.3c0-2.6,2.1-4.6,4.6-4.6h110c2.6,0,4.6,2.1,4.6,4.6v44.3
		C174.4,168.7,172.3,170.8,169.8,170.8z"/>
	<g>
		<path class="st7" d="M228.2,111.7h-110c-2.6,0-4.6-2.1-4.6-4.6V62.7c0-2.6,2.1-4.6,4.6-4.6h110c2.6,0,4.6,2.1,4.6,4.6V107
			C232.9,109.6,230.8,111.7,228.2,111.7z"/>
		<path class="st7" d="M228.2,229.9h-110c-2.6,0-4.6-2.1-4.6-4.6V181c0-2.6,2.1-4.6,4.6-4.6h110c2.6,0,4.6,2.1,4.6,4.6v44.3
			C232.9,227.8,230.8,229.9,228.2,229.9z"/>
	</g>
</g>
</svg>
