<?xml version="1.0" encoding="utf-8"?>
<!-- Generator: Adobe Illustrator 26.5.0, SVG Export Plug-In . SVG Version: 6.00 Build 0)  -->
<svg version="1.1" id="Layer_1" xmlns="http://www.w3.org/2000/svg" xmlns:xlink="http://www.w3.org/1999/xlink" x="0px" y="0px"
	 viewBox="0 0 288 288" style="enable-background:new 0 0 288 288;" xml:space="preserve">
<style type="text/css">
	.st0{fill:#6094CE;}
	.st1{fill:#FFFFFF;}
	.st2{fill:#1A3B69;}
	.st3{fill:#D2E1DA;}
	.st4{fill:#C2862B;}
	.st5{fill:#EEAC21;stroke:#F0BB4F;stroke-width:1.3363;stroke-miterlimit:10;}
	.st6{fill:#9C4722;}
	.st7{fill:#F48459;}
	.st8{fill:#D7D1D2;}
	.st9{fill:#7D727B;}
	.st10{fill:#89A19A;}
	.st11{fill:#A8D165;}
	.st12{fill:#639540;}
	.st13{fill:#688C3F;}
	.st14{fill:#89BF58;}
	.st15{fill:#962D28;}
	.st16{fill:#574357;}
	.st17{fill:#A58FA0;}
</style>
<g>
	<g>
		<path class="st3" d="M142.6,229.9c-16.1,0-32.2,0-48.4,0c-5.8,0-11.6,0-17.4-0.2c-3.4-0.1-5.9-2.2-8-4.7c-2.3-2.8-2.4-6.2-2.2-9.5
			c0.1-1,0.6-2,1.1-3c1.3-3,2.6-5.9,4-8.8c1.7-3.5,3.5-6.9,5.2-10.4c1.2-2.5,2.3-5,3.5-7.6c0.5-1.1,1.1-2.3,1.6-3.4
			c1.4-2.9,2.7-5.8,4.2-8.6c1-2.1,2.3-4,3.3-6.1c0.6-1.2,1-2.4,1.5-3.6c1.2-2.6,2.4-5.2,3.6-7.8c1.2-2.5,2.6-5,3.8-7.5
			c1.2-2.5,2.3-5.2,3.5-7.7c1.1-2.2,2.3-4.4,3.3-6.6c0.8-1.6,1.5-3.3,2.3-4.9c0.2-0.5,0.5-1,0.8-1.5c1.1-2.2,2.2-4.4,3.3-6.6
			c1.2-2.5,2.4-5,3.6-7.5c1.1-2.2,2.3-4.2,3.2-6.4c0.4-0.9,0.4-2,0.4-3c0-10.4-0.1-20.9-0.1-31.3c0-0.2,0-0.4,0-0.6
			c-0.1-3.2-0.1-3.2-3.2-3.2c-3.8,0-4.7-1.2-6.2-4c-1-1.8-0.2-3.9,1.4-5.6c1.2-1.3,2.6-1.7,4.3-1.7c2.2,0.1,4.3,0,6.5,0
			c6,0,12,0,18,0c1.4,0,2.9-0.2,4.3-0.1c8,0.5,16-0.1,24,0.1c1.7,0.1,3.5,0.1,5.2,0.1c4.6-0.2,6.6,3.7,5.3,7.7
			c-0.7,1.9-2.6,3.3-4.9,3.5c-0.3,0-0.7,0-1,0c-3.5-0.1-3.6-0.1-3.6,3.4c-0.1,4,0,7.9,0,11.9c-0.1,6-0.1,11.9-0.3,17.9
			c-0.1,2.8,0.9,5.2,2.3,7.6c0.6,1,1.2,2.1,1.7,3.2c1.6,3.5,3.1,7,4.8,10.4c1.1,2.3,2.4,4.5,3.6,6.7c0.7,1.4,1.2,2.9,1.9,4.3
			c1.2,2.5,2.6,4.9,3.9,7.4c0.7,1.4,1.1,2.8,1.8,4.2c1.1,2.5,2.3,4.9,3.5,7.4c0.7,1.4,1.4,2.7,2.1,4.1c2.6,5.4,5.2,10.8,7.7,16.1
			c1.4,3,2.9,6,4.3,9c2.1,4.4,4.3,8.7,6.5,13.1c1.1,2.3,2.2,4.7,3.2,7.1c1.2,2.5,2.4,5.1,3.6,7.6c1.4,3,2.8,6.1,1.8,9.4
			c-1.1,3.5-2.8,6.7-6.6,8.5c-3,1.5-6,1.2-9.1,1.1c-2.6-0.1-5.3,0.2-7.9,0.2C179.2,229.9,160.9,229.9,142.6,229.9
			C142.6,229.9,142.6,229.9,142.6,229.9z M141.9,215.8c0.1,0,0.3,0,0.4,0c0.7-1.3,1.5-2.5,2.2-3.8c0.7-1.5,1.3-3.2,2-4.7
			c0.8-1.8,1.8-3.5,2.7-5.3c1.9-3.8,3.7-7.6,5.6-11.4c0.7-1.4,1.3-2.7,2-4.1c1.2-2.4,2.4-4.8,3.5-7.2c1.1-2.3,2.1-4.6,3.1-6.8
			c0.6-1.2,1.2-2.3,1.8-3.5c1.2-2.3,2.6-4.6,3.7-6.9c0.8-1.6,1.2-3.3,1.8-4.9c0.3-0.8,0.3-1.4-0.4-1.8c-0.7-0.4-1.5-1-2.3-1
			c-5.9-0.1-11.8,0-17.8-0.1c-4.5-0.1-4.2,0.7-4.2-4.2c0-13.1,0.1-26.3,0.1-39.4c0-0.5,0-1-0.2-1.4c-0.2-0.5-0.6-0.9-0.9-1.3
			c-0.4,0.4-0.9,0.7-1.1,1.2c-1.3,2.6-2.5,5.3-3.7,7.9c-0.6,1.3-1.3,2.5-1.9,3.8c-1.7,3.7-3.4,7.5-5.1,11.2c-1.2,2.5-2.5,5-3.7,7.5
			c-0.6,1.2-1.1,2.6-1.7,3.8c-0.8,1.7-1.7,3.4-2.6,5.1c-0.8,1.5-1.5,3.1-2.2,4.6c-1,2.1-2,4.1-3.1,6.2c-0.5,1-1.1,2-1.6,3.1
			c-0.5,1.1-0.8,2.2-1.3,3.3c-0.7,1.6,0,2.9,1.7,3.1c0.4,0,0.7,0,1.1,0c6.6,0,13.1,0,19.7,0c1.3,0,1.7,0.5,1.7,1.7
			c0,12.9,0,25.8,0,38.7c0,1.4-0.1,2.9,0,4.3C141.4,214.3,141.7,215,141.9,215.8z"/>
		<path class="st4" d="M122.8,216.8c0.1,0,0.3,0,0.4,0c0.7-1.3,1.5-2.5,2.2-3.8c0.7-1.5,1.3-3.2,2-4.7c0.8-1.8,1.8-3.5,2.7-5.3
			c1.9-3.8,3.7-7.6,5.6-11.4c0.7-1.4,1.3-2.7,2-4.1c1.2-2.4,2.4-4.8,3.5-7.2c1.1-2.3,2.1-4.6,3.1-6.8c0.6-1.2,1.2-2.3,1.8-3.5
			c1.2-2.3,2.6-4.6,3.7-6.9c0.8-1.6,1.2-3.3,1.8-4.9c0.3-0.8,0.3-1.4-0.4-1.8c-0.7-0.4-1.5-1-2.3-1c-5.9-0.1-11.8,0-17.8-0.1
			c-4.5-0.1-4.2,0.7-4.2-4.2c0-13.1,0.1-26.3,0.1-39.4c0-0.5,0-1-0.2-1.4c-0.2-0.5-0.6-0.9-0.9-1.3c-0.4,0.4-0.9,0.7-1.1,1.2
			c-1.3,2.6-2.5,5.3-3.7,7.9c-0.6,1.3-1.3,2.5-1.9,3.8c-1.7,3.7-3.4,7.5-5.1,11.2c-1.2,2.5-2.5,5-3.7,7.5c-0.6,1.2-1.1,2.6-1.7,3.8
			c-0.8,1.7-1.7,3.4-2.6,5.1c-0.8,1.5-1.5,3.1-2.2,4.6c-1,2.1-2,4.1-3.1,6.2c-0.5,1-1.1,2-1.6,3.1c-0.5,1.1-0.8,2.2-1.3,3.3
			c-0.7,1.6,0,2.9,1.7,3.1c0.4,0,0.7,0,1.1,0c6.6,0,13.1,0,19.7,0c1.3,0,1.7,0.5,1.7,1.7c0,12.9,0,25.8,0,38.7c0,1.4-0.1,2.9,0,4.3
			C122.3,215.2,122.6,216,122.8,216.8z"/>
		<path class="st8" d="M142.6,229.9c-16.1,0-32.2,0-48.4,0c-5.8,0-11.6,0-17.4-0.2c-3.4-0.1-5.9-2.2-8-4.7c-2.3-2.8-2.4-6.2-2.2-9.5
			c0.1-1,0.6-2,1.1-3c1.3-3,2.6-5.9,4-8.8c1.7-3.5,3.5-6.9,5.2-10.4c1.2-2.5,2.3-5,3.5-7.6c0.5-1.1,1.1-2.3,1.6-3.4
			c1.4-2.9,2.7-5.8,4.2-8.6c1-2.1,2.3-4,3.3-6.1c0.6-1.2,1-2.4,1.5-3.6c1.2-2.6,2.4-5.2,3.6-7.8c1.2-2.5,2.6-5,3.8-7.5
			c1.2-2.5,2.3-5.2,3.5-7.7c1.1-2.2,2.3-4.4,3.3-6.6c0.8-1.6,1.5-3.3,2.3-4.9c0.2-0.5,0.5-1,0.8-1.5c1.1-2.2,2.2-4.4,3.3-6.6
			c1.2-2.5,2.4-5,3.6-7.5c1.1-2.2,2.3-4.2,3.2-6.4c0.4-0.9,0.4-2,0.4-3c0-10.4-0.1-20.9-0.1-31.3c0-0.2,0-0.4,0-0.6
			c-0.1-3.2-0.1-3.2-3.2-3.2c-3.8,0-4.7-1.2-6.2-4c-1-1.8-0.2-3.9,1.4-5.6c1.2-1.3,2.6-1.7,4.3-1.7c2.2,0.1,4.3,0,6.5,0
			c6,0,12,0,18,0c1.4,0,2.9-0.2,4.3-0.1c8,0.5,16-0.1,24,0.1c1.7,0.1,3.5,0.1,5.2,0.1c4.6-0.2,6.6,3.7,5.3,7.7
			c-0.7,1.9-2.6,3.3-4.9,3.5c-0.3,0-0.7,0-1,0c-3.5-0.1-3.6-0.1-3.6,3.4c-0.1,4,0,7.9,0,11.9c-0.1,6-0.1,11.9-0.3,17.9
			c-0.1,2.8,0.9,5.2,2.3,7.6c0.6,1,1.2,2.1,1.7,3.2c1.6,3.5,3.1,7,4.8,10.4c1.1,2.3,2.4,4.5,3.6,6.7c0.7,1.4,1.2,2.9,1.9,4.3
			c1.2,2.5,2.6,4.9,3.9,7.4c0.7,1.4,1.1,2.8,1.8,4.2c1.1,2.5,2.3,4.9,3.5,7.4c0.7,1.4,1.4,2.7,2.1,4.1c2.6,5.4,5.2,10.8,7.7,16.1
			c1.4,3,2.9,6,4.3,9c2.1,4.4,4.3,8.7,6.5,13.1c1.1,2.3,2.2,4.7,3.2,7.1c1.2,2.5,2.4,5.1,3.6,7.6c1.4,3,2.8,6.1,1.8,9.4
			c-1.1,3.5-2.8,6.7-6.6,8.5c-3,1.5-6,1.2-9.1,1.1c-2.6-0.1-5.3,0.2-7.9,0.2C179.2,229.9,160.9,229.9,142.6,229.9
			C142.6,229.9,142.6,229.9,142.6,229.9z M141.9,215.8c0.1,0,0.3,0,0.4,0c0.7-1.3,1.5-2.5,2.2-3.8c0.7-1.5,1.3-3.2,2-4.7
			c0.8-1.8,1.8-3.5,2.7-5.3c1.9-3.8,3.7-7.6,5.6-11.4c0.7-1.4,1.3-2.7,2-4.1c1.2-2.4,2.4-4.8,3.5-7.2c1.1-2.3,2.1-4.6,3.1-6.8
			c0.6-1.2,1.2-2.3,1.8-3.5c1.2-2.3,2.6-4.6,3.7-6.9c0.8-1.6,1.2-3.3,1.8-4.9c0.3-0.8,0.3-1.4-0.4-1.8c-0.7-0.4-1.5-1-2.3-1
			c-5.9-0.1-11.8,0-17.8-0.1c-4.5-0.1-4.2,0.7-4.2-4.2c0-13.1,0.1-26.3,0.1-39.4c0-0.5,0-1-0.2-1.4c-0.2-0.5-0.6-0.9-0.9-1.3
			c-0.4,0.4-0.9,0.7-1.1,1.2c-1.3,2.6-2.5,5.3-3.7,7.9c-0.6,1.3-1.3,2.5-1.9,3.8c-1.7,3.7-3.4,7.5-5.1,11.2c-1.2,2.5-2.5,5-3.7,7.5
			c-0.6,1.2-1.1,2.6-1.7,3.8c-0.8,1.7-1.7,3.4-2.6,5.1c-0.8,1.5-1.5,3.1-2.2,4.6c-1,2.1-2,4.1-3.1,6.2c-0.5,1-1.1,2-1.6,3.1
			c-0.5,1.1-0.8,2.2-1.3,3.3c-0.7,1.6,0,2.9,1.7,3.1c0.4,0,0.7,0,1.1,0c6.6,0,13.1,0,19.7,0c1.3,0,1.7,0.5,1.7,1.7
			c0,12.9,0,25.8,0,38.7c0,1.4-0.1,2.9,0,4.3C141.4,214.3,141.7,215,141.9,215.8z"/>
		<path class="st9" d="M141.9,215.8c-0.2-0.8-0.6-1.6-0.6-2.4c-0.1-1.4,0-2.9,0-4.3c0-12.9,0-25.8,0-38.7c0-1.2-0.3-1.7-1.7-1.7
			c-6.6,0.1-13.1,0-19.7,0c-0.4,0-0.7,0-1.1,0c-1.8-0.2-2.5-1.4-1.7-3.1c0.5-1.1,0.8-2.2,1.3-3.3c0.5-1,1.1-2,1.6-3.1
			c1-2.1,2.1-4.1,3.1-6.2c0.8-1.5,1.5-3.1,2.2-4.6c0.8-1.7,1.7-3.4,2.6-5.1c0.6-1.3,1.1-2.6,1.7-3.8c1.2-2.5,2.6-4.9,3.7-7.5
			c1.8-3.7,3.4-7.5,5.1-11.2c0.6-1.3,1.3-2.6,1.9-3.8c1.2-2.6,2.4-5.3,3.7-7.9c0.2-0.5,0.7-0.8,1.1-1.2c0.3,0.4,0.7,0.8,0.9,1.3
			c0.2,0.4,0.2,0.9,0.2,1.4c0,13.1-0.1,26.3-0.1,39.4c0,4.9-0.3,4.1,4.2,4.2c5.9,0.1,11.8,0,17.8,0.1c0.8,0,1.6,0.5,2.3,1
			c0.7,0.4,0.7,1.1,0.4,1.8c-0.7,1.6-1.1,3.4-1.8,4.9c-1.1,2.4-2.5,4.6-3.7,6.9c-0.6,1.1-1.2,2.3-1.8,3.5c-1.1,2.3-2.1,4.6-3.1,6.8
			c-1.1,2.4-2.4,4.8-3.5,7.2c-0.7,1.4-1.3,2.7-2,4.1c-1.9,3.8-3.7,7.6-5.6,11.4c-0.9,1.8-1.9,3.5-2.7,5.3c-0.7,1.5-1.2,3.2-2,4.7
			c-0.6,1.3-1.4,2.5-2.2,3.8C142.2,215.8,142.1,215.8,141.9,215.8z"/>
	</g>
	<path class="st16" d="M142.6,229.9c-16.1,0-32.2,0-48.4,0c-5.8,0-11.6,0-17.4-0.2c-3.4-0.1-5.9-2.2-8-4.7c-2.3-2.8-2.4-6.2-2.2-9.5
		c0.1-1,0.6-2,1.1-3c1.3-3,2.6-5.9,4-8.8c1.7-3.5,3.5-6.9,5.2-10.4c1.2-2.5,2.3-5,3.5-7.6c0.5-1.1,1.1-2.3,1.6-3.4
		c1.4-2.9,2.7-5.8,4.2-8.6c1-2.1,2.3-4,3.3-6.1c0.6-1.2,1-2.4,1.5-3.6c1.2-2.6,2.4-5.2,3.6-7.8c1.2-2.5,2.6-5,3.8-7.5
		c1.2-2.5,2.3-5.2,3.5-7.7c1.1-2.2,2.3-4.4,3.3-6.6c0.8-1.6,1.5-3.3,2.3-4.9c0.2-0.5,0.5-1,0.8-1.5c1.1-2.2,2.2-4.4,3.3-6.6
		c1.2-2.5,2.4-5,3.6-7.5c1.1-2.2,2.3-4.2,3.2-6.4c0.4-0.9,0.4-2,0.4-3c0-10.4-0.1-20.9-0.1-31.3c0-0.2,0-0.4,0-0.6
		c-0.1-3.2-0.1-3.2-3.2-3.2c-3.8,0-4.7-1.2-6.2-4c-1-1.8-0.2-3.9,1.4-5.6c1.2-1.3,2.6-1.7,4.3-1.7c2.2,0.1,4.3,0,6.5,0
		c6,0,12,0,18,0c1.4,0,2.9-0.2,4.3-0.1c8,0.5,16-0.1,24,0.1c1.7,0.1,3.5,0.1,5.2,0.1c4.6-0.2,6.6,3.7,5.3,7.7
		c-0.7,1.9-2.6,3.3-4.9,3.5c-0.3,0-0.7,0-1,0c-3.5-0.1-3.6-0.1-3.6,3.4c-0.1,4,0,7.9,0,11.9c-0.1,6-0.1,11.9-0.3,17.9
		c-0.1,2.8,0.9,5.2,2.3,7.6c0.6,1,1.2,2.1,1.7,3.2c1.6,3.5,3.1,7,4.8,10.4c1.1,2.3,2.4,4.5,3.6,6.7c0.7,1.4,1.2,2.9,1.9,4.3
		c1.2,2.5,2.6,4.9,3.9,7.4c0.7,1.4,1.1,2.8,1.8,4.2c1.1,2.5,2.3,4.9,3.5,7.4c0.7,1.4,1.4,2.7,2.1,4.1c2.6,5.4,5.2,10.8,7.7,16.1
		c1.4,3,2.9,6,4.3,9c2.1,4.4,4.3,8.7,6.5,13.1c1.1,2.3,2.2,4.7,3.2,7.1c1.2,2.5,2.4,5.1,3.6,7.6c1.4,3,2.8,6.1,1.8,9.4
		c-1.1,3.5-2.8,6.7-6.6,8.5c-3,1.5-6,1.2-9.1,1.1c-2.6-0.1-5.3,0.2-7.9,0.2C179.2,229.9,160.9,229.9,142.6,229.9
		C142.6,229.9,142.6,229.9,142.6,229.9z"/>
	<path class="st17" d="M142.5,197.9c0.1,0,0.2,0,0.3,0c0.6-1,1.2-1.9,1.6-2.9c0.6-1.1,0.9-2.4,1.5-3.5c0.6-1.3,1.4-2.6,2-4
		c1.4-2.9,2.8-5.7,4.2-8.6c0.5-1,1-2.1,1.5-3.1c0.9-1.8,1.8-3.6,2.6-5.4c0.8-1.7,1.5-3.4,2.3-5.1c0.4-0.9,0.9-1.7,1.3-2.6
		c0.9-1.7,1.9-3.4,2.8-5.2c0.6-1.2,0.9-2.5,1.4-3.7c0.2-0.6,0.2-1.1-0.3-1.4c-0.5-0.3-1.1-0.7-1.7-0.7c-4.4-0.1-8.9,0-13.3-0.1
		c-3.4,0-3.2,0.5-3.2-3.1c0-9.9,0.1-19.7,0.1-29.6c0-0.3,0-0.7-0.2-1c-0.2-0.4-0.4-0.6-0.7-1c-0.3,0.3-0.6,0.5-0.8,0.9
		c-1,2-1.9,3.9-2.8,5.9c-0.5,1-1,1.9-1.4,2.9c-1.3,2.8-2.5,5.6-3.8,8.4c-0.9,1.9-1.9,3.7-2.8,5.6c-0.5,0.9-0.8,1.9-1.3,2.9
		c-0.6,1.3-1.3,2.5-1.9,3.8c-0.6,1.1-1.1,2.3-1.7,3.5c-0.8,1.6-1.5,3.1-2.3,4.7c-0.4,0.8-0.8,1.5-1.2,2.3c-0.4,0.8-0.6,1.7-1,2.5
		c-0.6,1.2,0,2.2,1.3,2.3c0.3,0,0.6,0,0.8,0c4.9,0,9.9,0,14.8,0c1,0,1.2,0.4,1.2,1.3c0,9.7,0,19.4,0,29.1c0,1.1-0.1,2.2,0,3.2
		C142.1,196.8,142.4,197.3,142.5,197.9z"/>
</g>
</svg>
