<?xml version="1.0" encoding="utf-8"?>
<!-- Generator: Adobe Illustrator 26.5.0, SVG Export Plug-In . SVG Version: 6.00 Build 0)  -->
<svg version="1.1" id="Layer_1" xmlns="http://www.w3.org/2000/svg" xmlns:xlink="http://www.w3.org/1999/xlink" x="0px" y="0px"
	 viewBox="0 0 288 288" style="enable-background:new 0 0 288 288;" xml:space="preserve">
<style type="text/css">
	.st0{fill:#6094CE;}
	.st1{fill:#FFFFFF;}
	.st2{fill:#1A3B69;}
	.st3{fill:#D2E1DA;}
	.st4{fill:#C2862B;}
	.st5{fill:#EEAC21;stroke:#F0BB4F;stroke-width:1.3363;stroke-miterlimit:10;}
	.st6{fill:#9C4722;}
	.st7{fill:#F48459;}
	.st8{fill:#D7D1D2;}
	.st9{fill:#7D727B;}
	.st10{fill:#89A19A;}
	.st11{fill:#A8D165;}
	.st12{fill:#639540;}
	.st13{fill:#688C3F;}
	.st14{fill:#89BF58;}
	.st15{fill:#962D28;}
	.st16{fill:#574357;}
	.st17{fill:#A58FA0;}
</style>
<g>
	<g id="LDdRjh.tif_00000112598811971530170180000004063748060587650223_">
		<g>
			<g>
				<g>
					<path class="st10" d="M219.7,149c1.7,13,0.5,25.8-4.4,38c-9.1,22.5-25.8,35.8-49.4,40.7c-12.5,2.6-25.1,2.7-37.8,1.5
						c-2.7-16.5-7.8-32.3-14-47.7c-4.2-10.4-8.9-20.6-14-30.6c-7.1-13.6-14.7-27-23.1-39.8c-0.3-0.5-0.6-1.1-0.9-1.7
						c0,0,0.1-0.1,0.1-0.1c0.9,0.2,1.6,0.8,2.2,1.4c6.6,6.3,12.6,13.1,18,20.5c10.5,14.5,18.4,30.5,23.8,47.6
						c3.1,9.9,5.5,19.9,6.9,30.3c0.8,6.2,1.3,12.4,1.5,18.9c1.4-1.3,2.1-2.9,2.9-4.3c3-5.1,5.7-10.4,8-15.9c2-4.9,5.2-9,8.2-13.3
						c5.6-8,11.8-15.6,18.3-23c6.4-7.4,13.4-14.4,20.4-21.2c0.5-0.5,1-1.1,1.5-1.7c0,0,0.1,0,0.1-0.1c0,0,0-0.1,0-0.1
						c0,0.1-0.1,0.1-0.1,0.2c-2.8,0.5-4.8,2.4-7,3.9c-12.3,8.1-22.7,18.3-31.4,30.3c-0.5,0.7-1.1,1.4-1.9,2c0.4-2,0.8-3.9,1.2-5.9
						c1.5-7.5,2.4-15,2.2-22.6c-0.2-6.5-1.1-12.9-2.8-19.2"/>
				</g>
				<path class="st10" d="M75.6,108.6c0.3,0.1,0.4,0.4,0.4,0.7c0,0-0.1,0.1-0.1,0.1C75.7,109.2,75.6,108.9,75.6,108.6L75.6,108.6z"
					/>
				<path class="st10" d="M75.6,108.6c-0.1-0.1-0.1-0.1-0.2-0.2c0,0,0.1,0,0.1,0C75.6,108.5,75.6,108.6,75.6,108.6
					C75.6,108.6,75.6,108.6,75.6,108.6z"/>
				<path class="st10" d="M187.8,148.6c0-0.1,0.1-0.1,0.1-0.2c0,0,0,0.1,0,0.1C187.9,148.5,187.8,148.5,187.8,148.6
					C187.8,148.5,187.8,148.6,187.8,148.6z"/>
			</g>
		</g>
	</g>
	<g id="LDdRjh.tif_00000148660547205715997450000003732046032621568179_">
		<g>
			<path class="st11" d="M147.1,229.2c-1.2,0.9-2.5,0.1-3.7-0.1c-16.1-2.5-31.9-6.4-46.6-13.7c-26.4-13-42.2-33.9-47-63
				c-4.1-25,1.6-48.2,13.9-70c4.5-8,9.8-15.5,16-22.3c2.4-2.7,4.3-2.7,6.9-0.3c8.1,7.7,17.4,13.7,26.6,20
				c7.1,4.8,14.9,8.5,21.9,13.5c14.8,10.6,25.9,24,31.4,41.6c0.1,0.2,0.3,0.4,0.4,0.6c0.1,0.4,0.1,0.9,0.2,1.3
				c1.8,6.3,2.6,12.7,2.8,19.2c0.2,7.6-0.7,15.2-2.2,22.6c-0.4,2-0.8,3.9-1.2,5.9c0.9-0.6,1.4-1.2,1.9-2c8.6-12,19.1-22.2,31.4-30.3
				c2.2-1.5,4.3-3.3,7-3.9l0,0c-0.5,0.6-1,1.2-1.5,1.7c-7,6.9-13.9,13.8-20.4,21.2c-6.4,7.4-12.6,15-18.3,23
				c-3,4.3-6.2,8.4-8.2,13.3c-2.2,5.5-5,10.8-8,15.9c-0.8,1.4-1.5,3-2.9,4.3c-0.2-6.5-0.7-12.7-1.5-18.9
				c-1.4-10.3-3.8-20.4-6.9-30.3c-5.4-17.1-13.2-33-23.8-47.6c-5.4-7.4-11.4-14.2-18-20.5c-0.6-0.6-1.3-1.3-2.2-1.4
				c0-0.3-0.1-0.6-0.4-0.7c0,0,0-0.1-0.1-0.1c0,0-0.1,0-0.1,0c0.1,0.1,0.1,0.1,0.2,0.2c0,0.3,0.1,0.6,0.4,0.8
				c0.3,0.6,0.6,1.2,0.9,1.7c8.5,12.8,16.1,26.2,23.1,39.8c5.2,10,9.8,20.2,14,30.6C139.3,197,144.5,212.7,147.1,229.2z"/>
			<path class="st12" d="M206.9,148.6c-2.8,0.5-4.8,2.4-7,3.9c-12.3,8.1-22.7,18.3-31.4,30.3c-0.5,0.7-1.1,1.4-1.9,2
				c0.4-2,0.8-3.9,1.2-5.9c1.5-7.5,2.4-15,2.2-22.6c-0.2-6.5-1.1-12.9-2.8-19.2c-0.1-0.4-0.1-0.9-0.2-1.3c7.2-4.8,15-7.9,23.2-10.3
				c11.1-3.3,22.1-7,32.2-13c2.1-1.3,3.8-0.7,5.1,1.7c5.9,11,9.8,22.6,11.4,34.9c1.7,13,0.5,25.8-4.4,38
				c-9.1,22.5-25.8,35.8-49.4,40.7c-12.5,2.6-25.1,2.7-37.8,1.5c-2.7-16.5-7.8-32.3-14-47.7c-4.2-10.4-8.9-20.6-14-30.6
				c-7.1-13.6-14.7-27-23.1-39.8c-0.3-0.5-0.6-1.1-0.9-1.7c0,0,0.1-0.1,0.1-0.1c0.9,0.2,1.6,0.8,2.2,1.4c6.6,6.3,12.6,13.1,18,20.5
				c10.5,14.5,18.4,30.5,23.8,47.6c3.1,9.9,5.5,19.9,6.9,30.3c0.8,6.2,1.3,12.4,1.5,18.9c1.4-1.3,2.1-2.9,2.9-4.3
				c3-5.1,5.7-10.4,8-15.9c2-4.9,5.2-9,8.2-13.3c5.6-8,11.8-15.6,18.3-23c6.4-7.4,13.4-14.4,20.4-21.2
				C205.9,149.7,206.3,149.1,206.9,148.6c0,0,0.1,0,0.1-0.1c0,0,0-0.1,0-0.1C207,148.4,206.9,148.5,206.9,148.6z"/>
			<path class="st13" d="M94.7,108.6c0.3,0.1,0.4,0.4,0.4,0.7c0,0-0.1,0.1-0.1,0.1C94.8,109.2,94.7,108.9,94.7,108.6L94.7,108.6z"/>
			<path class="st13" d="M94.7,108.6c-0.1-0.1-0.1-0.1-0.2-0.2c0,0,0.1,0,0.1,0C94.7,108.5,94.7,108.6,94.7,108.6
				C94.7,108.6,94.7,108.6,94.7,108.6z"/>
			<path class="st14" d="M206.9,148.6c0-0.1,0.1-0.1,0.1-0.2c0,0,0,0.1,0,0.1C207,148.5,206.9,148.5,206.9,148.6
				C206.9,148.5,206.9,148.6,206.9,148.6z"/>
		</g>
	</g>
</g>
</svg>
