<?xml version="1.0" encoding="utf-8"?>
<!-- Generator: Adobe Illustrator 26.5.0, SVG Export Plug-In . SVG Version: 6.00 Build 0)  -->
<svg version="1.1" id="Layer_1" xmlns="http://www.w3.org/2000/svg" xmlns:xlink="http://www.w3.org/1999/xlink" x="0px" y="0px"
	 viewBox="0 0 288 288" style="enable-background:new 0 0 288 288;" xml:space="preserve">
<style type="text/css">
	.st0{fill:#6094CE;}
	.st1{fill:#FFFFFF;}
	.st2{fill:#1A3B69;}
	.st3{fill:#D2E1DA;}
	.st4{fill:#C2862B;}
	.st5{fill:#EEAC21;stroke:#F0BB4F;stroke-width:1.3363;stroke-miterlimit:10;}
	.st6{fill:#9C4722;}
	.st7{fill:#F48459;}
	.st8{fill:#D7D1D2;}
	.st9{fill:#7D727B;}
	.st10{fill:#89A19A;}
	.st11{fill:#A8D165;}
	.st12{fill:#639540;}
	.st13{fill:#688C3F;}
	.st14{fill:#89BF58;}
	.st15{fill:#962D28;}
	.st16{fill:#574357;}
	.st17{fill:#A58FA0;}
</style>
<g>
	<path class="st4" d="M221.1,207c-17.1,0-34.2,0-51.3,0c-2.2,0-3.1,0.5-2.8,2.8c0.3,3.3,0.5,6.6,0.5,10c0,1.8,0.6,2.5,2.6,2.5
		c5.1-0.1,10.3,0,15.4-0.1c1.5,0,2,0.5,2.2,2c0.7,5.7,0.7,5.7-5,5.7c-26.3,0-52.5,0-78.8,0c-4,0-4,0-3.5-3.8
		c0.5-3.9,0.5-3.9,4.3-3.9c4.4,0,8.9-0.1,13.3,0c2.1,0.1,2.7-0.7,2.7-2.6c0-3.3,0.2-6.7,0.5-10c0.2-2.2-0.6-2.7-2.7-2.7
		c-34.2,0.1-68.4,0-102.6,0c-3.1,0-3.1-0.1-2.3-2.9c0.4-1.2,0.9-2.4,1.1-3.7c0.2-2.5,1.5-3.1,3.9-3.1c83.9,0.1,167.8,0.1,251.7,0
		c2,0,3,0.5,3.2,2.6c0.2,1.5,0.8,3,1.3,4.4c0.7,1.9,0.3,2.7-2,2.7C255.4,207,238.2,207,221.1,207z"/>
	<path class="st5" d="M243.2,188.9c-8.2,0-16.4,0-24.6,0c-1.8,0-2.5-0.5-2.8-2.4c-1.7-11.2-3.5-22.4-5.3-33.5c-0.2-1.5,0-2,1.6-2
		c15.4,0,30.7,0,46.1,0c1.7,0,1.9,1.1,2.2,2.2c2.7,9.8,5.5,19.7,8.2,29.5c0,0.2,0.1,0.3,0.1,0.5c1.5,5.6,1.5,5.6-4.5,5.6
		C257.2,188.9,250.2,188.9,243.2,188.9z"/>
	<path class="st5" d="M44.7,188.9c-8,0-15.9,0-23.9,0c-3.2,0-3.2,0-2.4-3c3-10.8,6.1-21.7,9-32.5c0.5-1.9,1.4-2.4,3.2-2.4
		c14.8,0.1,29.6,0.1,44.4,0c2.2,0,2.6,0.6,2.2,2.6c-1.8,10.9-3.6,21.9-5.2,32.8c-0.3,1.9-1,2.5-2.9,2.5
		C60.9,188.8,52.8,188.9,44.7,188.9z"/>
	<path class="st5" d="M176.9,188.9c-8.1,0-16.2-0.1-24.3,0c-1.9,0-2.5-0.5-2.5-2.4c-0.1-11-0.3-22-0.6-33c-0.1-2.1,0.7-2.5,2.6-2.5
		c14.9,0.1,29.9,0,44.8,0c1.6,0,2.2,0.4,2.4,2.1c1.4,11,2.9,22,4.4,32.9c0.3,2.2-0.1,3-2.5,2.9C193.2,188.8,185.1,188.9,176.9,188.9
		z"/>
	<path class="st5" d="M110.7,188.9c-8.1,0-16.2-0.1-24.4,0c-2.1,0-2.6-0.6-2.3-2.7c1.5-10.9,2.9-21.8,4.3-32.7
		c0.3-2.1,1.1-2.6,3.1-2.6c14.7,0.1,29.4,0.1,44.1,0c2.1,0,2.8,0.5,2.7,2.7c-0.3,10.8-0.5,21.7-0.5,32.5c0,2.4-0.8,2.8-3,2.7
		C126.8,188.8,118.8,188.9,110.7,188.9z"/>
	<path class="st5" d="M54.8,142.4c-7.3,0-14.5-0.1-21.8,0c-2.1,0-2.4-0.5-1.8-2.5c3.1-10.9,6.1-21.8,9.1-32.8
		c0.5-1.8,1.2-2.6,3.3-2.6c13,0.1,26,0.1,39,0c2.2,0,2.5,0.6,2.2,2.7c-1.8,10.8-3.6,21.5-5.2,32.3c-0.3,2.1-0.9,2.9-3.2,2.8
		C69.1,142.3,61.9,142.4,54.8,142.4z"/>
	<path class="st5" d="M173.6,142.4c-7.3,0-14.7-0.1-22,0c-1.7,0-2.1-0.5-2.1-2.2c-0.1-11-0.3-22-0.6-33c0-2,0.4-2.7,2.5-2.6
		c13.1,0.1,26.1,0.1,39.2,0c1.7,0,2.4,0.3,2.6,2.1c1.4,11.2,2.9,22.3,4.4,33.4c0.2,1.8-0.3,2.2-2,2.2
		C188.3,142.3,181,142.4,173.6,142.4z"/>
	<path class="st5" d="M232.7,142.4c-7.3,0-14.5,0-21.8,0c-1.6,0-2.1-0.5-2.4-2.1c-1.7-10.8-3.5-21.5-5.2-32.3
		c-0.5-3.2-0.5-3.3,2.7-3.3c12.7,0,25.5,0,38.2,0c1.9,0,2.8,0.5,3.3,2.5c2.9,10.9,6,21.7,9.1,32.5c0.6,2,0.4,2.9-2.1,2.9
		C247.3,142.3,240,142.4,232.7,142.4z"/>
	<path class="st5" d="M114,142.4c-7.1,0-14.2-0.1-21.3,0.1c-2.4,0.1-2.8-0.6-2.5-2.9c1.5-10.8,2.9-21.6,4.2-32.5
		c0.2-1.8,0.9-2.4,2.8-2.4c13.1,0.1,26.2,0.1,39.3,0c2,0,2.4,0.7,2.4,2.5c-0.2,10.9-0.4,21.8-0.4,32.8c0,2.2-0.8,2.5-2.7,2.5
		C128.5,142.3,121.3,142.4,114,142.4z"/>
	<path class="st5" d="M117.1,96c-6.3,0-12.6,0-19,0c-1.7,0-2.1-0.4-1.9-2.2c1.5-11,3-22.1,4.4-33.2c0.2-1.9,0.9-2.6,2.8-2.6
		c11.3,0.1,22.5,0.1,33.8,0c1.7,0,2.2,0.5,2.1,2.2c-0.2,11-0.3,22-0.3,33c0,2-0.6,2.8-2.8,2.8C129.9,95.9,123.5,96,117.1,96z"/>
	<path class="st5" d="M64.9,96c-6.3,0-12.6-0.1-19,0c-1.9,0-2.4-0.6-1.9-2.4c3.2-11.3,6.3-22.6,9.4-33.9c0.3-1.2,1-1.6,2.2-1.6
		c11.5,0,23.1,0.1,34.6,0c2,0,2,1,1.8,2.4c-1.2,7.4-2.4,14.8-3.5,22.2c-0.6,3.7-1.4,7.4-1.8,11.1c-0.2,1.8-0.9,2.2-2.6,2.2
		C77.7,95.9,71.3,96,64.9,96z"/>
	<path class="st5" d="M222.6,96c-6.2,0-12.5-0.1-18.7,0c-1.8,0-2.6-0.5-2.9-2.3c-1.7-11.3-3.5-22.5-5.4-33.8
		c-0.2-1.5,0.3-1.8,1.6-1.8c11.7,0,23.4,0.1,35.1,0c1.4,0,1.7,0.7,2,1.8c2.7,9.8,5.4,19.5,8.1,29.3c0.4,1.4,0.7,2.8,1.2,4.2
		c0.9,2.3,0,2.7-2.1,2.7C235.3,95.9,228.9,96,222.6,96z"/>
	<path class="st5" d="M170.2,96c-6.3,0-12.7-0.1-19,0c-1.9,0-2.5-0.6-2.5-2.5c-0.1-11-0.2-22-0.5-33c0-2,0.7-2.5,2.5-2.5
		c11.2,0.1,22.4,0.1,33.6,0c1.9,0,2.5,0.7,2.8,2.4c1.4,11.1,2.8,22.2,4.4,33.2c0.3,1.9-0.2,2.4-2.1,2.3C183,95.9,176.6,96,170.2,96
		C170.2,96,170.2,96,170.2,96z"/>
</g>
</svg>
