<?xml version="1.0" encoding="utf-8"?>
<!-- Generator: Adobe Illustrator 26.5.0, SVG Export Plug-In . SVG Version: 6.00 Build 0)  -->
<svg version="1.1" xmlns="http://www.w3.org/2000/svg" xmlns:xlink="http://www.w3.org/1999/xlink" x="0px" y="0px"
	 viewBox="0 0 288 288" style="enable-background:new 0 0 288 288;" xml:space="preserve">
<style type="text/css">
	.st0{fill:#683F1F;}
	.st1{fill:#8D2926;}
	.st2{clip-path:url(#SVGID_00000054945179466050062760000012459024720889091255_);}
	.st3{fill:#F4E1C2;}
	.st4{clip-path:url(#SVGID_00000084531553528914095850000015910324822025457556_);}
	.st5{clip-path:url(#SVGID_00000143597798000180782880000001232810468343589291_);}
	.st6{fill:#C16136;}
	.st7{fill:#010101;}
	.st8{font-family:'MyriadPro-Light';}
	.st9{font-size:2.6961px;}
	.st10{clip-path:url(#SVGID_00000003821604869846810070000005642334282381012892_);}
	.st11{fill:#985230;}
	.st12{fill:#952B27;}
	.st13{fill:#652017;}
	.st14{clip-path:url(#SVGID_00000139255650937405603360000006170325591090077854_);}
	.st15{fill:#8A462A;}
	.st16{fill:#651F17;}
	.st17{fill:#FFFFFF;}
	.st18{font-family:'Futura-Bold';}
	.st19{font-size:69.3941px;}
</style>
<g id="Layer_1">
	<g>
		<g>
			<polygon class="st0" points="76,261.7 8,144 76,26.3 212,26.3 280,144 212,261.7 			"/>
			<path class="st1" d="M209,31.5L274,144l-65,112.5H79L14.1,144L79,31.5H209 M215,21h-6H79h-6l-3,5.2L5,138.8L2,144l3,5.2l65,112.5
				l3,5.2h6h130h6l3-5.2l65-112.5l3-5.2l-3-5.2L218,26.3L215,21L215,21z"/>
		</g>
		<g>
			<g>
				<defs>
					<polygon id="SVGID_1_" points="209,31.5 79,31.5 14.1,144 79,256.5 209,256.5 273.9,144 					"/>
				</defs>
				<clipPath id="SVGID_00000003790317355712979920000005875485224396163731_">
					<use xlink:href="#SVGID_1_"  style="overflow:visible;"/>
				</clipPath>
				<g style="clip-path:url(#SVGID_00000003790317355712979920000005875485224396163731_);">
					<g>
						<polygon class="st3" points="184.3,125.2 142.4,69.3 82.2,50.6 129.8,114.2 						"/>
						<polygon class="st3" points="44.3,103.3 -47,84.9 13.4,171.6 100.3,178.1 						"/>
						<polygon class="st3" points="120.6,112.4 72,47.5 -8.2,22.7 47.9,97.7 						"/>
						<polygon class="st3" points="-18.4,19.5 -113,-9.7 -52.2,77.5 38.7,95.8 						"/>
						<polygon class="st3" points="187.2,190.9 234.8,254.5 279.1,251.9 236.3,194.6 						"/>
						<polygon class="st3" points="113.6,185.4 168.2,258.4 227.3,254.9 178.9,190.3 						"/>
						<polygon class="st3" points="18,178.2 77.6,263.7 160.7,258.8 105.3,184.7 						"/>
						<polygon class="st3" points="286.6,251.4 334.5,248.6 291.8,198.8 244.5,195.2 						"/>
						<polygon class="st3" points="238,136.1 194.5,85.4 152.6,72.4 193.5,127.1 						"/>
						<polygon class="st3" points="53.5,105.2 108.6,178.7 173.9,183.6 126.2,119.9 						"/>
						<polygon class="st3" points="239.6,188.6 286,192.1 244.6,143.8 199.2,134.6 						"/>
						<polygon class="st3" points="182.2,184.3 231.3,187.9 190,132.8 135.4,121.7 						"/>
						<polygon class="st3" points="13.4,171.6 5.3,170.9 9.9,177.6 18,178.2 						"/>
						<polygon class="st3" points="291.8,198.8 300.6,199.4 294.9,192.7 286,192.1 						"/>
						<polygon class="st3" points="160.7,258.8 165.2,264.8 172.7,264.4 168.2,258.4 						"/>
						<polygon class="st3" points="227.3,254.9 231.8,260.9 239.3,260.5 234.8,254.5 						"/>
						<polygon class="st3" points="279.1,251.9 283.6,257.9 291.1,257.4 286.6,251.4 						"/>
					</g>
				</g>
			</g>
			<g>
				<defs>
					<polygon id="SVGID_00000106834014854778674990000018263951395988852147_" points="209,31.5 79,31.5 14.1,144 79,256.5 
						209,256.5 273.9,144 					"/>
				</defs>
				<clipPath id="SVGID_00000127024862433626392680000003545674236043331252_">
					<use xlink:href="#SVGID_00000106834014854778674990000018263951395988852147_"  style="overflow:visible;"/>
				</clipPath>
				<g style="clip-path:url(#SVGID_00000127024862433626392680000003545674236043331252_);">
					<g>
						<defs>
							<polygon id="SVGID_00000047048385659434405140000016383101522976559503_" points="209.9,27.7 77.2,27.7 10.8,142.6 
								77.2,257.5 209.9,257.5 276.2,142.6 							"/>
						</defs>
						<clipPath id="SVGID_00000153663083668291647270000011592195465094017678_">
							<use xlink:href="#SVGID_00000047048385659434405140000016383101522976559503_"  style="overflow:visible;"/>
						</clipPath>
						<g style="clip-path:url(#SVGID_00000153663083668291647270000011592195465094017678_);">
							<rect x="-51.6" y="22.3" class="st6" width="460" height="246.5"/>
							<text transform="matrix(1 0 0 1 126.8013 186.0361)" class="st7 st8 st9">C75429</text>
						</g>
					</g>
					<g>
						<defs>
							<polygon id="SVGID_00000033350052758011184960000003592912296778114732_" points="209.9,27.7 77.2,27.7 10.8,142.6 
								77.2,257.5 209.9,257.5 276.2,142.6 							"/>
						</defs>
						<clipPath id="SVGID_00000033359413755916276430000015579315871194492066_">
							<use xlink:href="#SVGID_00000033350052758011184960000003592912296778114732_"  style="overflow:visible;"/>
						</clipPath>
						<g style="clip-path:url(#SVGID_00000033359413755916276430000015579315871194492066_);">
							<polyline class="st11" points="323.4,277.7 -31.7,277.7 -31.7,4.5 323.4,4.5 							"/>
							<g>
								<polygon class="st12" points="25.8,121 -29,122.6 -29,159.7 25.8,161.2 								"/>
								<polygon class="st12" points="98.7,63.1 98.7,24.5 33.4,33.9 33.4,68.4 								"/>
								<polygon class="st12" points="28.4,34.6 -29,42.9 -29,73.6 28.4,68.9 								"/>
								<polygon class="st12" points="144.8,59.3 145,59.3 220.5,65.9 220.5,27.1 144.8,17.9 104.3,23.7 104.3,62.6 								"/>
								<polygon class="st12" points="223.9,216.4 223.9,255.1 287.4,244.6 287.4,210.2 								"/>
								<polygon class="st12" points="28.3,213.8 28.3,249.8 98.7,260.9 98.7,220 								"/>
								<polygon class="st12" points="-29,208.7 -29,240.7 22.7,248.9 22.7,213.3 								"/>
								<polygon class="st12" points="144.8,224 104.3,220.5 104.3,261.8 144.8,268.2 218.3,256 218.3,216.9 								"/>
								<polygon class="st13" points="286.6,71.6 286.6,35.1 226.2,27.8 226.2,66.4 								"/>
								<polygon class="st12" points="144.8,117.6 104.3,118.7 104.3,163.4 144.8,164.6 218.5,162.3 218.5,119.6 								"/>
								<polygon class="st12" points="31.4,120.8 31.4,161.4 98.7,163.3 98.7,118.9 								"/>
								<polygon class="st12" points="190.4,168.8 190.4,214 260.3,207.2 260.3,166.6 								"/>
								<polygon class="st12" points="144.8,170.2 144.7,170.2 72.3,168.1 72.3,212 144.8,218.4 185.5,214.5 185.5,168.9 								
									"/>
								<polygon class="st12" points="223.6,119.7 223.6,162.1 291.2,160 291.2,121.6 								"/>
								<polygon class="st12" points="265.2,206.7 319.7,201.4 319.7,164.7 265.2,166.4 								"/>
								<polyline class="st12" points="185.3,68.5 144.8,64.9 67.9,71.2 67.9,114.2 144.8,111.9 144.8,111.9 185.5,113.1 
									185.5,69.4 								"/>
								<polyline class="st12" points="265,75.8 265,115.2 265,115.2 319.7,116.8 319.7,80.1 								"/>
								<polygon class="st13" points="190.4,69.4 190.4,113.2 260.5,115.2 260.5,75.8 								"/>
								<polygon class="st12" points="-0.2,76.8 -0.2,116.1 62.3,114.3 62.3,71.7 								"/>
								<polygon class="st12" points="-0.2,166.1 -0.2,205.6 66.7,211.5 66.7,168 								"/>
							</g>
							<g>
								<g>
									<defs>
										<polyline id="SVGID_00000126317693702696503900000007696186233787159219_" points="145.9,277.7 -31.7,277.7 -31.7,4.5 
											145.9,4.5 										"/>
									</defs>
									<clipPath id="SVGID_00000002377638157107650160000014610434348725081731_">
										<use xlink:href="#SVGID_00000126317693702696503900000007696186233787159219_"  style="overflow:visible;"/>
									</clipPath>
									<g style="clip-path:url(#SVGID_00000002377638157107650160000014610434348725081731_);">
										<polygon class="st15" points="223.9,216.4 223.9,255.1 287.4,244.6 287.4,210.2 										"/>
										<polygon class="st15" points="286.6,71.6 286.6,35.1 226.2,27.8 226.2,66.4 										"/>
										<polygon class="st15" points="190.4,168.8 190.4,214 260.3,207.2 260.3,166.6 										"/>
										<polygon class="st15" points="223.6,119.7 223.6,162.1 291.2,160 291.2,121.6 										"/>
										<polygon class="st15" points="265.2,206.7 319.7,201.4 319.7,164.7 265.2,166.4 										"/>
										<polyline class="st15" points="265,75.8 265,115.2 265,115.2 319.7,116.8 319.7,80.1 										"/>
										<polygon class="st15" points="190.4,69.4 190.4,113.2 260.5,115.2 260.5,75.8 										"/>
										<polygon class="st16" points="25.8,121 -29,122.6 -29,159.7 25.8,161.2 										"/>
										<polygon class="st16" points="98.7,63.1 98.7,24.5 33.4,33.9 33.4,68.4 										"/>
										<polygon class="st16" points="28.4,34.6 -29,42.9 -29,73.6 28.4,68.9 										"/>
										<polygon class="st16" points="144.8,59.3 145,59.3 220.5,65.9 220.5,27.1 144.8,17.9 104.3,23.7 104.3,62.6 										"/>
										<polygon class="st16" points="28.3,213.8 28.3,249.8 98.7,260.9 98.7,220 										"/>
										<polygon class="st16" points="-29,208.7 -29,240.7 22.7,248.9 22.7,213.3 										"/>
										<polygon class="st16" points="144.8,224 104.3,220.5 104.3,261.8 144.8,268.2 218.3,256 218.3,216.9 										"/>
										<polygon class="st16" points="144.8,117.6 104.3,118.7 104.3,163.4 144.8,164.6 218.5,162.3 218.5,119.6 										"/>
										<polygon class="st16" points="31.4,120.8 31.4,161.4 98.7,163.3 98.7,118.9 										"/>
										<polygon class="st16" points="144.8,170.2 144.7,170.2 72.3,168.1 72.3,212 144.8,218.4 185.5,214.5 185.5,168.9 
																					"/>
										<polyline class="st16" points="185.3,68.5 144.8,64.9 67.9,71.2 67.9,114.2 144.8,111.9 144.8,111.9 185.5,113.1 
											185.5,69.4 										"/>
										<polygon class="st16" points="-0.2,76.8 -0.2,116.1 62.3,114.3 62.3,71.7 										"/>
										<polygon class="st16" points="-0.2,166.1 -0.2,205.6 66.7,211.5 66.7,168 										"/>
									</g>
								</g>
							</g>
						</g>
					</g>
				</g>
			</g>
		</g>
	</g>
	<g>
		<path class="st12" d="M185.5,197.6h-83c-6.5,0-11.8-5.3-11.8-11.8v-80.2c0-6.5,5.3-11.8,11.8-11.8h83c6.5,0,11.8,5.3,11.8,11.8
			v80.2C197.3,192.3,192,197.6,185.5,197.6z"/>
		<path class="st17" d="M185.5,194.2h-83c-6.5,0-11.8-5.3-11.8-11.8v-80.2c0-6.5,5.3-11.8,11.8-11.8h83c6.5,0,11.8,5.3,11.8,11.8
			v80.2C197.3,188.9,192,194.2,185.5,194.2z"/>
		<text transform="matrix(1 0 0 1 120.2139 155.752)" class="st12 st18 st19">6</text>
	</g>
</g>
<g id="_x35_">
	<g>
		<g>
			<circle class="st12" cx="116" cy="178.2" r="4.5"/>
			<circle class="st12" cx="130" cy="178.2" r="4.5"/>
			<circle class="st12" cx="144" cy="178.2" r="4.5"/>
			<circle class="st12" cx="158" cy="178.2" r="4.5"/>
			<circle class="st12" cx="172" cy="178.2" r="4.5"/>
		</g>
	</g>
</g>
<g id="_x34_">
	<g>
		<g>
			<circle class="st12" cx="123" cy="178.2" r="4.5"/>
			<circle class="st12" cx="137" cy="178.2" r="4.5"/>
			<circle class="st12" cx="151" cy="178.2" r="4.5"/>
			<circle class="st12" cx="165" cy="178.2" r="4.5"/>
		</g>
	</g>
</g>
<g id="_x33_">
	<g>
		<g>
			<circle class="st12" cx="130" cy="178.2" r="4.5"/>
			<circle class="st12" cx="144" cy="178.2" r="4.5"/>
			<circle class="st12" cx="158" cy="178.2" r="4.5"/>
		</g>
	</g>
</g>
<g id="_x32_">
	<g>
		<g>
			<circle class="st12" cx="137" cy="178.2" r="4.5"/>
			<circle class="st12" cx="151" cy="178.2" r="4.5"/>
		</g>
	</g>
</g>
<g id="_x31_">
	<g>
		<g>
			<circle class="st12" cx="144" cy="178.2" r="4.5"/>
		</g>
	</g>
</g>
</svg>
